<?xml version="1.0" encoding="UTF-8" standalone="no"?>
<!-- Created with Inkscape (http://www.inkscape.org/) -->

<svg
   xmlns:dc="http://purl.org/dc/elements/1.1/"
   xmlns:cc="http://creativecommons.org/ns#"
   xmlns:rdf="http://www.w3.org/1999/02/22-rdf-syntax-ns#"
   xmlns:svg="http://www.w3.org/2000/svg"
   xmlns="http://www.w3.org/2000/svg"
   xmlns:xlink="http://www.w3.org/1999/xlink"
   xmlns:sodipodi="http://sodipodi.sourceforge.net/DTD/sodipodi-0.dtd"
   xmlns:inkscape="http://www.inkscape.org/namespaces/inkscape"
   width="50"
   height="50"
   id="svg3067"
   version="1.1"
   inkscape:version="0.48.2 r9819"
   sodipodi:docname="Beer.svg">
  <defs
     id="defs3069">
    <linearGradient
       gradientTransform="translate(-28.947442,-0.59356385)"
       gradientUnits="userSpaceOnUse"
       y2="176.31338"
       x2="12.73065"
       y1="176.31338"
       x1="-6.2643404"
       id="linearGradient4075"
       xlink:href="#linearGradient4069"
       inkscape:collect="always" />
    <linearGradient
       id="linearGradient4069">
      <stop
         id="stop4071"
         offset="0"
         style="stop-color:#eeedd4;stop-opacity:1;" />
      <stop
         style="stop-color:#b59f36;stop-opacity:1;"
         offset="1"
         id="stop4077" />
    </linearGradient>
    <filter
       inkscape:collect="always"
       id="filter5968">
      <feGaussianBlur
         inkscape:collect="always"
         stdDeviation="0.23732311"
         id="feGaussianBlur5970" />
    </filter>
  </defs>
  <sodipodi:namedview
     id="base"
     pagecolor="#ffffff"
     bordercolor="#666666"
     borderopacity="1.0"
     inkscape:pageopacity="0.0"
     inkscape:pageshadow="2"
     inkscape:zoom="5.6"
     inkscape:cx="5.9322107"
     inkscape:cy="-0.21940235"
     inkscape:document-units="px"
     inkscape:current-layer="layer4"
     showgrid="false"
     inkscape:window-width="1680"
     inkscape:window-height="988"
     inkscape:window-x="2552"
     inkscape:window-y="1016"
     inkscape:window-maximized="1">
    <sodipodi:guide
       position="0,0"
       orientation="0,50"
       id="guide3088" />
    <sodipodi:guide
       position="50,0"
       orientation="-50,0"
       id="guide3090" />
    <sodipodi:guide
       position="50,50"
       orientation="0,-50"
       id="guide3092" />
    <sodipodi:guide
       position="0,50"
       orientation="50,0"
       id="guide3094" />
  </sodipodi:namedview>
  <metadata
     id="metadata3072">
    <rdf:RDF>
      <cc:Work
         rdf:about="">
        <dc:format>image/svg+xml</dc:format>
        <dc:type
           rdf:resource="http://purl.org/dc/dcmitype/StillImage" />
        <dc:title />
      </cc:Work>
    </rdf:RDF>
  </metadata>
  <g
     inkscape:groupmode="layer"
     id="layer5"
     inkscape:label="Background">
    <rect
       style="fill:#c7965a;fill-opacity:1;stroke:none"
       id="rect5277"
       width="50"
       height="50"
       x="0"
       y="0" />
  </g>
  <g
     inkscape:label="Beer"
     inkscape:groupmode="layer"
     id="layer1"
     transform="translate(0,-1002.3622)">
    <g
       id="g5319"
       transform="translate(25.702505,1032.0566)">
      <g
         style="display:inline"
         inkscape:label="dimple"
         id="layer2">
        <path
           transform="matrix(0.273449,0,0,0.24188646,6.312303,3.274902)"
           d="m 22.857142,-0.95535719 c 0,3.52574649 -2.558372,6.38392879 -5.714285,6.38392879 -3.155913,0 -5.714286,-2.8581823 -5.714286,-6.38392879 0,-3.52574651 2.558373,-6.38392881 5.714286,-6.38392881 3.155913,0 5.714285,2.8581823 5.714285,6.38392881 z"
           sodipodi:ry="6.3839288"
           sodipodi:rx="5.7142859"
           sodipodi:cy="-0.95535719"
           sodipodi:cx="17.142857"
           id="path4088"
           style="fill:#d1c583;fill-opacity:1;stroke:#000000;stroke-width:1.55530667;stroke-miterlimit:4;stroke-opacity:1;stroke-dasharray:none"
           sodipodi:type="arc" />
      </g>
      <g
         style="display:inline"
         transform="translate(36.714287,-165.71933)"
         id="layer1-2"
         inkscape:label="pot">
        <path
           sodipodi:nodetypes="sssczcssscs"
           inkscape:connector-curvature="0"
           d="m -32.360131,182.99169 c -0.889916,-0.0352 -1.262691,-0.37881 -1.262691,-1.26269 0,-0.88389 5.02e-4,-4.66745 0,-6.43973 -3.21e-4,-1.13192 -1.38896,-2.27284 -1.38896,-2.27284 0,0 2.180186,-4.57695 9.364459,-4.57815 7.184274,-0.001 9.230531,4.5758 9.230531,4.5758 0,0 -1.388639,1.14092 -1.38896,2.27285 -5.02e-4,1.77227 0,5.55583 0,6.43972 0,0.88388 -0.372775,1.22747 -1.262691,1.26269 -0.892159,0.0353 -6.645844,-0.0358 -6.645844,-0.0358 0,0 -5.753685,0.0735 -6.645844,0.0382 z"
           style="fill:url(#linearGradient4075);fill-opacity:1;stroke:#000000;stroke-width:0.40000001;stroke-linecap:butt;stroke-linejoin:round;stroke-miterlimit:4;stroke-opacity:1;stroke-dasharray:none"
           id="path4052" />
        <path
           transform="translate(-36.714287,165.71933)"
           inkscape:connector-curvature="0"
           id="path4079"
           d="M 30.848214,7.8392857 z"
           style="fill:none;stroke:#000000;stroke-width:1px;stroke-linecap:butt;stroke-linejoin:miter;stroke-opacity:1" />
        <path
           sodipodi:nodetypes="cc"
           inkscape:connector-curvature="0"
           id="path4081"
           d="m -16.678572,173.00533 -18.169643,-0.0271"
           style="fill:none;stroke:#000000;stroke-width:0.40000001;stroke-linecap:butt;stroke-linejoin:miter;stroke-miterlimit:4;stroke-opacity:1;stroke-dasharray:none" />
      </g>
    </g>
    <text
       xml:space="preserve"
       style="font-size:18px;font-style:normal;font-weight:normal;line-height:125%;letter-spacing:0px;word-spacing:0px;fill:#000000;fill-opacity:1;stroke:none;font-family:Sans"
       x="33.57143"
       y="1048.0764"
       id="text5329"
       sodipodi:linespacing="125%"><tspan
         sodipodi:role="line"
         id="tspan5331"
         x="33.57143"
         y="1048.0764"
         style="font-size:11px">5</tspan></text>
    <path
       style="fill:#905130;fill-opacity:1;stroke:#000000;stroke-width:0.50000002;stroke-miterlimit:4;stroke-dasharray:none;stroke-opacity:1"
       d="m 4.1071429,11.785714 21.2500001,0 0.357143,26.785715 c 0,0 0.05952,3.928571 -10.803571,3.928571 C 4.0476192,42.5 4.4642858,38.571429 4.4642858,38.571429 z"
       id="rect5381"
       inkscape:connector-curvature="0"
       sodipodi:nodetypes="ccczcc"
       transform="translate(0,1002.3622)" />
    <path
       style="fill:none;stroke:#000000;stroke-width:0.5;stroke-miterlimit:4;stroke-opacity:1;stroke-dasharray:none"
       d="m 25.626054,1035.9336 c 0,0 0.05952,3.9286 -10.803571,3.9286 -10.863095,0 -10.446429,-3.9286 -10.446429,-3.9286"
       id="rect5381-1"
       inkscape:connector-curvature="0"
       sodipodi:nodetypes="czc"
       inkscape:transform-center-x="-47.142857"
       inkscape:transform-center-y="3.75" />
    <path
       style="fill:none;stroke:#000000;stroke-width:0.5;stroke-miterlimit:4;stroke-opacity:1;stroke-dasharray:none"
       d="m 25.626054,1028.6121 c 0,0 0.05952,3.9286 -10.803571,3.9286 -10.863095,0 -10.446429,-3.9286 -10.446429,-3.9286"
       id="rect5381-1-6"
       inkscape:connector-curvature="0"
       sodipodi:nodetypes="czc"
       inkscape:transform-center-x="-47.142857"
       inkscape:transform-center-y="3.75" />
    <path
       style="fill:none;stroke:#000000;stroke-width:0.5;stroke-miterlimit:4;stroke-opacity:1;stroke-dasharray:none"
       d="m 25.626054,1021.2907 c 0,0 0.05952,3.9286 -10.803571,3.9286 -10.863095,0 -10.446429,-3.9286 -10.446429,-3.9286"
       id="rect5381-1-8"
       inkscape:connector-curvature="0"
       sodipodi:nodetypes="czc"
       inkscape:transform-center-x="-47.142857"
       inkscape:transform-center-y="3.75" />
    <path
       style="fill:none;stroke:#000000;stroke-width:0.5;stroke-miterlimit:4;stroke-opacity:1;stroke-dasharray:none"
       d="m 25.268911,1013.9694 c 0,0 0.05952,3.9286 -10.803571,3.9286 -10.8630948,0 -10.4464288,-3.9286 -10.4464288,-3.9286"
       id="rect5381-1-82"
       inkscape:connector-curvature="0"
       sodipodi:nodetypes="czc"
       inkscape:transform-center-x="-47.142857"
       inkscape:transform-center-y="3.75" />
    <path
       sodipodi:type="arc"
       style="fill:#e3d4b6;fill-opacity:1;stroke:none;stroke-width:0.50000000000000000;stroke-linecap:round;stroke-linejoin:round;stroke-miterlimit:4;stroke-opacity:1;stroke-dasharray:none;filter:url(#filter5968)"
       id="path5962"
       sodipodi:cx="14.508928"
       sodipodi:cy="8.2589283"
       sodipodi:rx="10.758928"
       sodipodi:ry="3.6160715"
       d="M 25.267857,8.2589283 C 25.267857,10.256029 20.45092,11.875 14.508928,11.875 8.5669363,11.875 3.75,10.256029 3.75,8.2589283 c 0,-1.9971011 4.8169363,-3.6160715 10.758928,-3.6160715 5.941992,0 10.758929,1.6189704 10.758929,3.6160715 z"
       transform="translate(0.08928571,1005.7551)" />
  </g>
  <g
     inkscape:groupmode="layer"
     id="layer4"
     inkscape:label="Food" />
</svg>
