<?xml version="1.0" encoding="UTF-8" standalone="no"?>
<!-- Created with Inkscape (http://www.inkscape.org/) -->

<svg
   xmlns:dc="http://purl.org/dc/elements/1.1/"
   xmlns:cc="http://creativecommons.org/ns#"
   xmlns:rdf="http://www.w3.org/1999/02/22-rdf-syntax-ns#"
   xmlns:svg="http://www.w3.org/2000/svg"
   xmlns="http://www.w3.org/2000/svg"
   xmlns:xlink="http://www.w3.org/1999/xlink"
   xmlns:sodipodi="http://sodipodi.sourceforge.net/DTD/sodipodi-0.dtd"
   xmlns:inkscape="http://www.inkscape.org/namespaces/inkscape"
   width="50"
   height="50"
   id="svg3067"
   version="1.1"
   inkscape:version="0.48.2 r9819"
   sodipodi:docname="Bread.svg">
  <defs
     id="defs3069">
    <linearGradient
       id="linearGradient8564">
      <stop
         style="stop-color:#4c3b27;stop-opacity:1;"
         offset="0"
         id="stop8566" />
      <stop
         id="stop8570"
         offset="1"
         style="stop-color:#4c3b27;stop-opacity:1;" />
    </linearGradient>
    <linearGradient
       id="linearGradient6996">
      <stop
         style="stop-color:#e3c390;stop-opacity:0.97647059;"
         offset="0"
         id="stop6998" />
      <stop
         style="stop-color:#633423;stop-opacity:0.97647059;"
         offset="1"
         id="stop7000" />
    </linearGradient>
    <linearGradient
       id="linearGradient6350">
      <stop
         id="stop6352"
         offset="0"
         style="stop-color:#dba079;stop-opacity:1;" />
      <stop
         id="stop6354"
         offset="1"
         style="stop-color:#74473a;stop-opacity:1;" />
    </linearGradient>
    <linearGradient
       id="linearGradient6326">
      <stop
         style="stop-color:#e6bda3;stop-opacity:1;"
         offset="0"
         id="stop6328" />
      <stop
         style="stop-color:#aa6756;stop-opacity:1;"
         offset="1"
         id="stop6330" />
    </linearGradient>
    <linearGradient
       id="linearGradient4069">
      <stop
         id="stop4071"
         offset="0"
         style="stop-color:#eeedd4;stop-opacity:1;" />
      <stop
         style="stop-color:#b59f36;stop-opacity:1;"
         offset="1"
         id="stop4077" />
    </linearGradient>
    <linearGradient
       id="linearGradient6794">
      <stop
         id="stop6796"
         offset="0"
         style="stop-color:#e6d944;stop-opacity:1;" />
      <stop
         id="stop6798"
         offset="1"
         style="stop-color:#ffffff;stop-opacity:1;" />
    </linearGradient>
    <linearGradient
       gradientUnits="userSpaceOnUse"
       y2="166.96429"
       x2="43.035713"
       y1="213.03571"
       x1="43.035713"
       id="linearGradient6800"
       xlink:href="#linearGradient6794"
       inkscape:collect="always" />
    <linearGradient
       inkscape:collect="always"
       xlink:href="#linearGradient6794-6"
       id="linearGradient4211-7"
       gradientUnits="userSpaceOnUse"
       x1="43.035713"
       y1="213.03571"
       x2="43.035713"
       y2="166.96429"
       gradientTransform="translate(-200.17857,-9.0663888)" />
    <linearGradient
       id="linearGradient6794-6">
      <stop
         id="stop6796-7"
         offset="0"
         style="stop-color:#e6d944;stop-opacity:1;" />
      <stop
         id="stop6798-8"
         offset="1"
         style="stop-color:#ffffff;stop-opacity:1;" />
    </linearGradient>
    <linearGradient
       y2="166.96429"
       x2="43.035713"
       y1="213.03571"
       x1="43.035713"
       gradientTransform="translate(-200.17857,-9.0663888)"
       gradientUnits="userSpaceOnUse"
       id="linearGradient6723"
       xlink:href="#linearGradient6794-6"
       inkscape:collect="always" />
    <linearGradient
       gradientTransform="translate(-28.947442,-0.59356385)"
       gradientUnits="userSpaceOnUse"
       y2="176.31338"
       x2="12.73065"
       y1="176.31338"
       x1="-6.2643404"
       id="linearGradient4075"
       xlink:href="#linearGradient4069-5"
       inkscape:collect="always" />
    <linearGradient
       id="linearGradient4069-5">
      <stop
         id="stop4071-8"
         offset="0"
         style="stop-color:#eeedd4;stop-opacity:1;" />
      <stop
         style="stop-color:#b59f36;stop-opacity:1;"
         offset="1"
         id="stop4077-9" />
    </linearGradient>
    <linearGradient
       inkscape:collect="always"
       xlink:href="#linearGradient6350"
       id="linearGradient8460"
       x1="2.8418586"
       y1="24.996986"
       x2="31.449493"
       y2="24.996986"
       gradientUnits="userSpaceOnUse" />
    <linearGradient
       inkscape:collect="always"
       xlink:href="#linearGradient6350-5"
       id="linearGradient8460-3"
       x1="2.8418586"
       y1="24.996986"
       x2="31.449493"
       y2="24.996986"
       gradientUnits="userSpaceOnUse" />
    <linearGradient
       id="linearGradient6350-5">
      <stop
         id="stop6352-5"
         offset="0"
         style="stop-color:#dba079;stop-opacity:1;" />
      <stop
         id="stop6354-1"
         offset="1"
         style="stop-color:#74473a;stop-opacity:1;" />
    </linearGradient>
    <linearGradient
       gradientTransform="translate(-0.35996185,1002.1866)"
       y2="24.996986"
       x2="31.449493"
       y1="24.996986"
       x1="2.8418586"
       gradientUnits="userSpaceOnUse"
       id="linearGradient8493"
       xlink:href="#linearGradient6350-5"
       inkscape:collect="always" />
    <linearGradient
       gradientTransform="translate(-0.35996185,1002.1866)"
       y2="24.996986"
       x2="31.449493"
       y1="24.996986"
       x1="2.8418586"
       gradientUnits="userSpaceOnUse"
       id="linearGradient8493-5"
       xlink:href="#linearGradient6350-5-5"
       inkscape:collect="always" />
    <linearGradient
       id="linearGradient6350-5-5">
      <stop
         id="stop6352-5-8"
         offset="0"
         style="stop-color:#dba079;stop-opacity:1;" />
      <stop
         id="stop6354-1-4"
         offset="1"
         style="stop-color:#74473a;stop-opacity:1;" />
    </linearGradient>
    <linearGradient
       y2="24.996986"
       x2="31.449493"
       y1="24.996986"
       x1="2.8418586"
       gradientTransform="matrix(0.99786412,0.29144495,-0.28454584,1.086396,14.928848,995.00561)"
       gradientUnits="userSpaceOnUse"
       id="linearGradient8527"
       xlink:href="#linearGradient6350-5-5"
       inkscape:collect="always" />
    <radialGradient
       inkscape:collect="always"
       xlink:href="#linearGradient8564"
       id="radialGradient8556"
       cx="22.142857"
       cy="23.928572"
       fx="22.142857"
       fy="23.928572"
       r="7.5"
       gradientTransform="matrix(1,0,0,0.85714283,0,3.418368)"
       gradientUnits="userSpaceOnUse" />
    <filter
       inkscape:collect="always"
       id="filter8592"
       x="-0.12952512"
       width="1.2590502"
       y="-0.11049321"
       height="1.2209864">
      <feGaussianBlur
         inkscape:collect="always"
         stdDeviation="0.70069137"
         id="feGaussianBlur8594" />
    </filter>
  </defs>
  <sodipodi:namedview
     id="base"
     pagecolor="#ffffff"
     bordercolor="#666666"
     borderopacity="1.0"
     inkscape:pageopacity="0.0"
     inkscape:pageshadow="2"
     inkscape:zoom="3.959798"
     inkscape:cx="-1.8159445"
     inkscape:cy="-3.2852483"
     inkscape:document-units="px"
     inkscape:current-layer="layer1"
     showgrid="false"
     inkscape:window-width="1680"
     inkscape:window-height="988"
     inkscape:window-x="2552"
     inkscape:window-y="1016"
     inkscape:window-maximized="1" />
  <metadata
     id="metadata3072">
    <rdf:RDF>
      <cc:Work
         rdf:about="">
        <dc:format>image/svg+xml</dc:format>
        <dc:type
           rdf:resource="http://purl.org/dc/dcmitype/StillImage" />
        <dc:title />
      </cc:Work>
    </rdf:RDF>
  </metadata>
  <g
     inkscape:groupmode="layer"
     id="layer5"
     inkscape:label="Background"
     style="display:inline">
    <rect
       style="fill:#d0b899;fill-opacity:0.8509804;stroke:none"
       id="rect5277"
       width="50"
       height="50"
       x="0"
       y="0" />
  </g>
  <g
     inkscape:label="Drawing"
     inkscape:groupmode="layer"
     id="layer1"
     transform="translate(0,-1002.3622)"
     style="opacity:0.8495575;display:inline">
    <path
       style="fill:url(#linearGradient8493);fill-opacity:1;stroke:#000000;stroke-width:1px;stroke-linecap:butt;stroke-linejoin:miter;stroke-opacity:1;display:inline"
       d="m 10.24664,1023.1448 c 3.914341,-4.1669 14.142135,-13.3845 19.192898,-11.6168 3.311406,1.159 -1.03836,12.2736 -6.565991,20.2031 -4.713522,6.7616 -13.5880419,13.1402 -18.4352839,10.8591 -4.29314895,-2.0203 1.894036,-15.2785 5.8083769,-19.4454 z"
       id="path6943"
       inkscape:connector-curvature="0"
       sodipodi:nodetypes="zsssz" />
    <path
       sodipodi:type="arc"
       style="fill:url(#radialGradient8556);fill-opacity:1;stroke:none;filter:url(#filter8592)"
       id="path8548"
       sodipodi:cx="22.142857"
       sodipodi:cy="23.928572"
       sodipodi:rx="7.5"
       sodipodi:ry="6.4285712"
       d="m 29.642857,23.928572 c 0,3.550402 -3.357865,6.428571 -7.5,6.428571 -4.142136,0 -7.5,-2.878169 -7.5,-6.428571 0,-3.550402 3.357864,-6.428572 7.5,-6.428572 4.142135,0 7.5,2.87817 7.5,6.428572 z"
       transform="matrix(0.72697352,-0.43080529,-0.36006835,0.75935944,11.769613,1024.2139)"
       inkscape:transform-center-x="0.8635762"
       inkscape:transform-center-y="-2.8071363" />
    <path
       style="fill:url(#linearGradient8527);fill-opacity:1;stroke:#000000;stroke-width:1.08028007px;stroke-linecap:butt;stroke-linejoin:miter;stroke-opacity:1;display:inline"
       d="m 19.549218,1020.8657 c 5.091668,-3.3861 17.920448,-10.4193 22.457428,-7.0268 2.974521,2.2244 -4.528543,13.0314 -12.300691,20.0351"
       id="path6943-0"
       inkscape:connector-curvature="0"
       sodipodi:nodetypes="csc" />
    <path
       sodipodi:type="arc"
       style="fill:#cab499;fill-opacity:0.97647059000000003;stroke:#000000;stroke-opacity:1"
       id="path8546"
       sodipodi:cx="23.839285"
       sodipodi:cy="26.160715"
       sodipodi:rx="3.6607144"
       sodipodi:ry="7.0535712"
       d="m 27.499999,26.160715 c 0,3.89558 -1.638957,7.053571 -3.660714,7.053571 -2.021757,0 -3.660714,-3.157991 -3.660714,-7.053571 0,-3.89558 1.638957,-7.053571 3.660714,-7.053571 2.021757,0 3.660714,3.157991 3.660714,7.053571 z"
       transform="matrix(0.89146596,-0.71281338,0.70489078,0.90148556,-14.781645,1020.5039)" />
  </g>
  <g
     inkscape:groupmode="layer"
     id="layer4"
     inkscape:label="Icons"
     style="display:inline">
    <g
       id="g6807"
       transform="translate(27.516276,30.760198)">
      <g
         style="display:inline"
         inkscape:label="dimple"
         id="layer2">
        <path
           transform="matrix(0.273449,0,0,0.24188646,6.312303,3.274902)"
           d="m 22.857142,-0.95535719 c 0,3.52574649 -2.558372,6.38392879 -5.714285,6.38392879 -3.155913,0 -5.714286,-2.8581823 -5.714286,-6.38392879 0,-3.52574651 2.558373,-6.38392881 5.714286,-6.38392881 3.155913,0 5.714285,2.8581823 5.714285,6.38392881 z"
           sodipodi:ry="6.3839288"
           sodipodi:rx="5.7142859"
           sodipodi:cy="-0.95535719"
           sodipodi:cx="17.142857"
           id="path4088"
           style="fill:#d1c583;fill-opacity:1;stroke:#000000;stroke-width:1.55530667;stroke-miterlimit:4;stroke-opacity:1;stroke-dasharray:none"
           sodipodi:type="arc" />
      </g>
      <g
         style="display:inline"
         transform="translate(36.714287,-165.71933)"
         id="layer1-0"
         inkscape:label="pot">
        <path
           sodipodi:nodetypes="sssczcssscs"
           inkscape:connector-curvature="0"
           d="m -32.360131,182.99169 c -0.889916,-0.0352 -1.262691,-0.37881 -1.262691,-1.26269 0,-0.88389 5.02e-4,-4.66745 0,-6.43973 -3.21e-4,-1.13192 -1.38896,-2.27284 -1.38896,-2.27284 0,0 2.180186,-4.57695 9.364459,-4.57815 7.184274,-0.001 9.230531,4.5758 9.230531,4.5758 0,0 -1.388639,1.14092 -1.38896,2.27285 -5.02e-4,1.77227 0,5.55583 0,6.43972 0,0.88388 -0.372775,1.22747 -1.262691,1.26269 -0.892159,0.0353 -6.645844,-0.0358 -6.645844,-0.0358 0,0 -5.753685,0.0735 -6.645844,0.0382 z"
           style="fill:url(#linearGradient4075);fill-opacity:1;stroke:#000000;stroke-width:0.40000001;stroke-linecap:butt;stroke-linejoin:round;stroke-miterlimit:4;stroke-opacity:1;stroke-dasharray:none"
           id="path4052" />
        <path
           transform="translate(-36.714287,165.71933)"
           inkscape:connector-curvature="0"
           id="path4079"
           d="M 30.848214,7.8392857 z"
           style="fill:none;stroke:#000000;stroke-width:1px;stroke-linecap:butt;stroke-linejoin:miter;stroke-opacity:1" />
        <path
           sodipodi:nodetypes="cc"
           inkscape:connector-curvature="0"
           id="path4081"
           d="m -16.678572,173.00533 -18.169643,-0.0271"
           style="fill:none;stroke:#000000;stroke-width:0.40000001;stroke-linecap:butt;stroke-linejoin:miter;stroke-miterlimit:4;stroke-opacity:1;stroke-dasharray:none" />
      </g>
    </g>
    <text
       xml:space="preserve"
       style="font-size:13px;font-style:normal;font-weight:normal;line-height:125%;letter-spacing:0px;word-spacing:0px;fill:#000000;fill-opacity:1;stroke:none;font-family:Sans"
       x="35.102806"
       y="47.474617"
       id="text6815"
       sodipodi:linespacing="125%"><tspan
         sodipodi:role="line"
         id="tspan6817"
         x="35.102806"
         y="47.474617">3</tspan></text>
  </g>
  <g
     inkscape:groupmode="layer"
     id="layer12"
     inkscape:label="Layer#2"
     style="display:inline">
    <path
       style="fill:#d0b899;fill-opacity:0.85098039;stroke:none"
       id="path6952"
       d="m 12.300784,21.282961 c 0.500832,-0.373725 1.010114,-0.736068 1.483252,-1.144845 1.385505,-1.097434 3.019896,-1.828084 4.560701,-2.679358 1.612275,-0.765368 -3.633391,2.149343 -2.735547,1.594509 1.115209,-0.689158 2.265727,-1.319583 3.406002,-1.966425 0.06826,-0.03872 0.285628,-0.128865 0.217861,-0.08928 -1.003576,0.586248 -4.019974,2.334604 -3.027139,1.730343 1.112303,-0.676971 2.25711,-1.299033 3.385666,-1.948549 0.366592,-0.143094 0.77491,-0.230989 1.108118,-0.444628 0.437303,-0.203116 0.904107,-0.330464 1.377285,-0.418557 0.299787,-0.07724 0.546676,-0.237425 0.814777,-0.380816 0,0 -2.923283,2.344129 -2.923283,2.344129 l 0,0 c -0.274003,0.135826 -0.563223,0.233462 -0.863128,0.296423 -0.461734,0.119657 -0.913299,0.276502 -1.336832,0.49837 -0.37177,0.13164 -0.742264,0.27928 -1.093128,0.457983 1.008715,-0.583141 4.053588,-2.298898 3.026145,-1.749424 -1.150313,0.615185 -2.262661,1.29887 -3.394938,1.946654 -0.06582,0.03766 -0.264923,0.147718 -0.199333,0.109655 0.995737,-0.577837 4.000471,-2.280343 2.989821,-1.729006 -6.924621,3.77757 -2.017911,1.23986 -3.66153,2.08841 -0.261329,0.134701 -0.223736,0.112304 -0.475793,0.253914 -0.07801,0.04383 -0.310439,0.178114 -0.233154,0.133023 5.22394,-3.047778 3.610934,-2.140348 2.516731,-1.444013 -0.481848,0.388702 -0.940336,0.809028 -1.462848,1.145054 0,0 -3.479706,1.396433 -3.479706,1.396433 z"
       inkscape:connector-curvature="0" />
    <path
       style="fill:#322617;fill-opacity:0.85098039;stroke:none"
       id="path6986"
       d="m 12.337628,21.328209 c 0.375275,-0.299277 0.815009,-0.497601 1.188982,-0.798175 0.4198,-0.220262 0.753513,-0.559591 1.155388,-0.80714 0.120606,-0.141457 0.300733,-0.205532 0.435986,-0.328537 0.135825,-0.123525 0.21993,-0.217696 0.386202,-0.305882 0.209094,-0.220648 0.477078,-0.371124 0.670729,-0.604209 1.201899,-0.912998 -3.201125,3.195144 -2.393274,2.403991 0.937203,-0.91783 1.591644,-2.305001 2.831694,-2.732827 0.234895,-0.08104 0.06573,0.01568 0.253986,-0.11074 0.139713,-0.03075 0.202733,-0.148441 0.328458,-0.206472 0.0428,-0.01975 0.09198,-0.02475 0.133073,-0.04786 0.03621,-0.02036 0.06343,-0.05365 0.09514,-0.08048 0.03941,-0.02037 0.07882,-0.04074 0.118229,-0.0611 0.282212,-0.07473 0.526156,-0.207041 0.816654,-0.25917 0.108414,-0.09585 0.260185,-0.09538 0.384204,-0.150715 0.138513,-0.0618 0.203026,-0.12196 0.363961,-0.170843 0,0 -2.304091,2.909627 -2.304091,2.909627 l 0,0 c -0.249795,0.121759 -0.511014,0.221883 -0.77963,0.293413 -0.253093,0.09128 -0.509191,0.189582 -0.741386,0.324107 -0.219832,0.142299 -0.452505,0.263943 -0.682412,0.389297 -0.121483,0.05291 -0.129655,0.04542 -0.22876,0.130099 -0.03198,0.02733 -0.119335,0.11865 -0.08958,0.08891 5.129223,-5.126416 1.445839,-1.438961 -0.293157,0.277538 -0.241617,0.185344 -0.459668,0.401278 -0.718303,0.5643 -0.25802,0.225022 -0.528399,0.432594 -0.814211,0.622021 -0.376232,0.279236 -0.752876,0.556152 -1.146733,0.810322 -0.415683,0.260297 -0.822691,0.535549 -1.247227,0.780233 0,0 2.276076,-2.929706 2.276076,-2.929706 z"
       inkscape:connector-curvature="0" />
    <path
       style="fill:#322617;fill-opacity:0.85098039;stroke:none"
       id="path6994"
       d="m 14.805229,23.67179 c -0.320763,0.257732 -0.659179,0.509507 -0.932016,0.819476 -0.426694,0.346056 0.161905,-0.117197 -0.27917,0.185254 -0.03983,0.02731 -0.142141,0.13076 -0.107856,0.09674 0.83565,-0.829073 3.260635,-3.390517 2.512074,-2.482041 -0.805544,0.977633 -1.788889,1.794031 -2.683858,2.690524 -0.833841,0.83526 1.666983,-1.671219 2.500475,-2.506828 -0.844557,1.093371 -0.324694,0.430178 -2.795544,2.760823 -0.113002,0.03114 -0.163429,0.02761 -0.246861,0.1124 -0.278288,0.282826 0.153549,-0.07212 -0.169203,0.180828 -0.221456,0.145408 -0.462651,0.245007 -0.65745,0.431113 -1.091927,0.866326 -2.6562603,2.539908 1.820597,-1.90031 -0.89683,0.913756 -1.767197,2.20934 -2.990145,2.844354 -0.05039,0.02616 -0.107102,0.0395 -0.156046,0.06828 -0.04422,0.026 -0.08084,0.06317 -0.121264,0.09476 -0.04567,0.02509 -0.09134,0.05019 -0.137007,0.07528 -0.278591,0.08612 -0.4584126,0.316703 -0.7271528,0.420598 -0.031706,0.02754 -0.063413,0.05508 -0.095119,0.08261 -0.039402,0.02081 -0.082933,0.03519 -0.1182072,0.06242 -0.032688,0.02523 -0.050906,0.0658 -0.082448,0.09245 -0.110732,0.09354 -0.2507951,0.122769 -0.387113,0.155666 -0.1295522,0.05252 -0.1611803,0.178337 -0.2785236,0.248799 -0.039168,0.02352 -0.086848,0.03137 -0.124607,0.05709 -0.034198,0.0233 -0.058593,0.05844 -0.087889,0.08766 -0.038115,0.02198 -0.07623,0.04397 -0.1143454,0.06595 -0.2592419,0.0845 -0.4215426,0.301531 -0.6759817,0.398152 -0.127388,0.111273 -0.057138,0.06271 -0.2118736,0.144052 0,0 2.254817,-2.950757 2.254817,-2.950757 l 0,0 c 0.1415865,-0.09812 0.066827,-0.05331 0.2247909,-0.133577 0.2067884,-0.157917 0.4288494,-0.282691 0.6477014,-0.420845 0.204417,-0.163099 0.41622,-0.327449 0.667932,-0.408037 0.220908,-0.133978 0.409331,-0.317007 0.64968,-0.420245 0.224789,-0.16524 0.465141,-0.294799 0.710409,-0.426665 1.178606,-0.769005 2.714306,-1.994175 -1.843589,2.039458 1.123248,-1.115166 2.142162,-2.300035 3.395609,-3.249673 0.223514,-0.137964 0.455122,-0.263128 0.649031,-0.443068 0.107563,-0.09379 0.220183,-0.126479 0.337321,-0.202246 0.03429,-0.02218 0.121691,-0.10884 0.09285,-0.07993 -2.466153,2.472427 -3.425924,3.258818 -2.413722,2.424038 0.888729,-0.90257 1.854218,-1.735507 2.666186,-2.70771 0.755263,-0.904309 -3.382862,3.278348 -2.495458,2.503291 0.955693,-0.8347 1.794377,-1.794642 2.700782,-2.682621 0.106345,-0.104183 0.262199,-0.168081 0.348018,-0.298299 0.326683,-0.274271 0.643003,-0.570176 1.030253,-0.758933 0,0 -2.276077,2.929705 -2.276077,2.929705 z"
       inkscape:connector-curvature="0" />
  </g>
  <g
     inkscape:groupmode="layer"
     id="layer11"
     inkscape:label="Layer#1"
     style="display:none">
    <path
       sodipodi:type="arc"
       style="fill:#d3cdb0;fill-opacity:0.97647059;stroke:#000000;stroke-width:0.5;stroke-miterlimit:4;stroke-opacity:1;stroke-dasharray:none"
       id="path6822"
       sodipodi:cx="40.532372"
       sodipodi:cy="8.4574766"
       sodipodi:rx="6.9447989"
       sodipodi:ry="7.1973367"
       d="m 47.47717,8.4574766 a 6.9447989,7.1973367 0 1 1 -13.889597,0 6.9447989,7.1973367 0 1 1 13.889597,0 z"
       transform="matrix(1.0357598,0,0,0.99941739,-0.67134623,0.51002708)" />
    <text
       xml:space="preserve"
       style="font-size:13px;font-style:normal;font-weight:normal;line-height:125%;letter-spacing:0px;word-spacing:0px;fill:#000000;fill-opacity:1;stroke:none;font-family:Sans"
       x="37.880722"
       y="13.38197"
       id="text6824"
       sodipodi:linespacing="125%"><tspan
         sodipodi:role="line"
         id="tspan6826"
         x="37.880722"
         y="13.38197">5</tspan></text>
  </g>
  <g
     inkscape:groupmode="layer"
     id="layer10"
     inkscape:label="Layer"
     style="display:none">
    <g
       style="display:inline"
       transform="matrix(0.31508102,0,0,0.33604188,58.604102,-20.650258)"
       id="layer1-7-7"
       inkscape:label="Layer 1">
      <path
         inkscape:connector-curvature="0"
         id="path6747-8"
         d="m -177.14286,157.8979 c 0,46.07142 20,46.07142 20,46.07142 0,0 20,1e-5 20,-46.07142 z"
         style="fill:url(#linearGradient6723);fill-opacity:1;stroke:#000000;stroke-width:2;stroke-linecap:butt;stroke-linejoin:miter;stroke-miterlimit:4;stroke-opacity:1;stroke-dasharray:none" />
    </g>
    <text
       xml:space="preserve"
       style="font-size:18px;font-style:normal;font-weight:normal;line-height:125%;letter-spacing:0px;word-spacing:0px;fill:#000000;fill-opacity:1;stroke:none;display:inline;font-family:Sans"
       x="5.1429248"
       y="38.106262"
       id="text6081-1"
       sodipodi:linespacing="125%"><tspan
         y="38.106262"
         x="5.1429248"
         sodipodi:role="line"
         id="tspan6083-6" /></text>
    <text
       xml:space="preserve"
       style="font-size:13px;font-style:normal;font-weight:normal;line-height:125%;letter-spacing:0px;word-spacing:0px;fill:#000000;fill-opacity:1;stroke:none;display:inline;font-family:Sans"
       x="5.8572192"
       y="44.356258"
       id="text6085-0"
       sodipodi:linespacing="125%"><tspan
         sodipodi:role="line"
         x="5.8572192"
         y="44.356258"
         id="tspan6408-9">2</tspan></text>
  </g>
</svg>
