<?xml version="1.0" encoding="UTF-8" standalone="no"?>
<!-- Created with Inkscape (http://www.inkscape.org/) -->

<svg
   xmlns:dc="http://purl.org/dc/elements/1.1/"
   xmlns:cc="http://creativecommons.org/ns#"
   xmlns:rdf="http://www.w3.org/1999/02/22-rdf-syntax-ns#"
   xmlns:svg="http://www.w3.org/2000/svg"
   xmlns="http://www.w3.org/2000/svg"
   xmlns:xlink="http://www.w3.org/1999/xlink"
   xmlns:sodipodi="http://sodipodi.sourceforge.net/DTD/sodipodi-0.dtd"
   xmlns:inkscape="http://www.inkscape.org/namespaces/inkscape"
   width="50"
   height="50"
   id="svg3067"
   version="1.1"
   inkscape:version="0.48.2 r9819"
   sodipodi:docname="Flour.svg">
  <defs
     id="defs3069">
    <linearGradient
       id="linearGradient8564">
      <stop
         style="stop-color:#4c3b27;stop-opacity:1;"
         offset="0"
         id="stop8566" />
      <stop
         id="stop8570"
         offset="1"
         style="stop-color:#4c3b27;stop-opacity:1;" />
    </linearGradient>
    <linearGradient
       id="linearGradient6996">
      <stop
         style="stop-color:#e3c390;stop-opacity:0.97647059;"
         offset="0"
         id="stop6998" />
      <stop
         style="stop-color:#633423;stop-opacity:0.97647059;"
         offset="1"
         id="stop7000" />
    </linearGradient>
    <linearGradient
       id="linearGradient6350">
      <stop
         id="stop6352"
         offset="0"
         style="stop-color:#dba079;stop-opacity:1;" />
      <stop
         id="stop6354"
         offset="1"
         style="stop-color:#74473a;stop-opacity:1;" />
    </linearGradient>
    <linearGradient
       id="linearGradient6326">
      <stop
         style="stop-color:#e6bda3;stop-opacity:1;"
         offset="0"
         id="stop6328" />
      <stop
         style="stop-color:#aa6756;stop-opacity:1;"
         offset="1"
         id="stop6330" />
    </linearGradient>
    <linearGradient
       id="linearGradient4069">
      <stop
         id="stop4071"
         offset="0"
         style="stop-color:#eeedd4;stop-opacity:1;" />
      <stop
         style="stop-color:#b59f36;stop-opacity:1;"
         offset="1"
         id="stop4077" />
    </linearGradient>
    <linearGradient
       id="linearGradient6794">
      <stop
         id="stop6796"
         offset="0"
         style="stop-color:#e6d944;stop-opacity:1;" />
      <stop
         id="stop6798"
         offset="1"
         style="stop-color:#ffffff;stop-opacity:1;" />
    </linearGradient>
    <linearGradient
       gradientUnits="userSpaceOnUse"
       y2="166.96429"
       x2="43.035713"
       y1="213.03571"
       x1="43.035713"
       id="linearGradient6800"
       xlink:href="#linearGradient6794"
       inkscape:collect="always" />
    <linearGradient
       inkscape:collect="always"
       xlink:href="#linearGradient6794-6"
       id="linearGradient4211-7"
       gradientUnits="userSpaceOnUse"
       x1="43.035713"
       y1="213.03571"
       x2="43.035713"
       y2="166.96429"
       gradientTransform="translate(-200.17857,-9.0663888)" />
    <linearGradient
       id="linearGradient6794-6">
      <stop
         id="stop6796-7"
         offset="0"
         style="stop-color:#e6d944;stop-opacity:1;" />
      <stop
         id="stop6798-8"
         offset="1"
         style="stop-color:#ffffff;stop-opacity:1;" />
    </linearGradient>
    <linearGradient
       y2="166.96429"
       x2="43.035713"
       y1="213.03571"
       x1="43.035713"
       gradientTransform="translate(-200.17857,-9.0663888)"
       gradientUnits="userSpaceOnUse"
       id="linearGradient6723"
       xlink:href="#linearGradient6794-6"
       inkscape:collect="always" />
    <linearGradient
       gradientTransform="translate(-28.947442,-0.59356385)"
       gradientUnits="userSpaceOnUse"
       y2="176.31338"
       x2="12.73065"
       y1="176.31338"
       x1="-6.2643404"
       id="linearGradient4075"
       xlink:href="#linearGradient4069-5"
       inkscape:collect="always" />
    <linearGradient
       id="linearGradient4069-5">
      <stop
         id="stop4071-8"
         offset="0"
         style="stop-color:#eeedd4;stop-opacity:1;" />
      <stop
         style="stop-color:#b59f36;stop-opacity:1;"
         offset="1"
         id="stop4077-9" />
    </linearGradient>
    <linearGradient
       inkscape:collect="always"
       xlink:href="#linearGradient6350"
       id="linearGradient8460"
       x1="2.8418586"
       y1="24.996986"
       x2="31.449493"
       y2="24.996986"
       gradientUnits="userSpaceOnUse" />
    <linearGradient
       inkscape:collect="always"
       xlink:href="#linearGradient6350-5"
       id="linearGradient8460-3"
       x1="2.8418586"
       y1="24.996986"
       x2="31.449493"
       y2="24.996986"
       gradientUnits="userSpaceOnUse" />
    <linearGradient
       id="linearGradient6350-5">
      <stop
         id="stop6352-5"
         offset="0"
         style="stop-color:#dba079;stop-opacity:1;" />
      <stop
         id="stop6354-1"
         offset="1"
         style="stop-color:#74473a;stop-opacity:1;" />
    </linearGradient>
    <linearGradient
       gradientTransform="translate(-0.35996185,1002.1866)"
       y2="24.996986"
       x2="31.449493"
       y1="24.996986"
       x1="2.8418586"
       gradientUnits="userSpaceOnUse"
       id="linearGradient8493"
       xlink:href="#linearGradient6350-5"
       inkscape:collect="always" />
    <linearGradient
       gradientTransform="translate(-0.35996185,1002.1866)"
       y2="24.996986"
       x2="31.449493"
       y1="24.996986"
       x1="2.8418586"
       gradientUnits="userSpaceOnUse"
       id="linearGradient8493-5"
       xlink:href="#linearGradient6350-5-5"
       inkscape:collect="always" />
    <linearGradient
       id="linearGradient6350-5-5">
      <stop
         id="stop6352-5-8"
         offset="0"
         style="stop-color:#dba079;stop-opacity:1;" />
      <stop
         id="stop6354-1-4"
         offset="1"
         style="stop-color:#74473a;stop-opacity:1;" />
    </linearGradient>
    <linearGradient
       y2="24.996986"
       x2="31.449493"
       y1="24.996986"
       x1="2.8418586"
       gradientTransform="matrix(0.99786412,0.29144495,-0.28454584,1.086396,14.928848,995.00561)"
       gradientUnits="userSpaceOnUse"
       id="linearGradient8527"
       xlink:href="#linearGradient6350-5-5"
       inkscape:collect="always" />
    <radialGradient
       inkscape:collect="always"
       xlink:href="#linearGradient8564"
       id="radialGradient8556"
       cx="22.142857"
       cy="23.928572"
       fx="22.142857"
       fy="23.928572"
       r="7.5"
       gradientTransform="matrix(1,0,0,0.85714283,0,3.418368)"
       gradientUnits="userSpaceOnUse" />
  </defs>
  <sodipodi:namedview
     id="base"
     pagecolor="#ffffff"
     bordercolor="#666666"
     borderopacity="1.0"
     inkscape:pageopacity="0.0"
     inkscape:pageshadow="2"
     inkscape:zoom="5.6"
     inkscape:cx="-4.7597093"
     inkscape:cy="39.378651"
     inkscape:document-units="px"
     inkscape:current-layer="layer13"
     showgrid="false"
     inkscape:window-width="1680"
     inkscape:window-height="988"
     inkscape:window-x="2552"
     inkscape:window-y="1016"
     inkscape:window-maximized="1" />
  <metadata
     id="metadata3072">
    <rdf:RDF>
      <cc:Work
         rdf:about="">
        <dc:format>image/svg+xml</dc:format>
        <dc:type
           rdf:resource="http://purl.org/dc/dcmitype/StillImage" />
        <dc:title />
      </cc:Work>
    </rdf:RDF>
  </metadata>
  <g
     inkscape:groupmode="layer"
     id="layer5"
     inkscape:label="Background"
     style="display:inline">
    <rect
       style="fill:#dad7c4;fill-opacity:1;stroke:none"
       id="rect5277"
       width="50"
       height="50"
       x="0"
       y="0" />
  </g>
  <g
     inkscape:groupmode="layer"
     id="layer13"
     inkscape:label="Layer#2"
     style="display:inline">
    <path
       style="fill:#8d6a41;fill-opacity:1;stroke:none"
       d="m 19.375,12.5 c 3.482143,0.267857 13.75,3.75 13.482143,6.339286 -0.267857,2.589285 -4.821429,7.857143 -8.928572,7.589285 C 19.821429,26.160714 7.5,19.107143 8.2142857,18.392857 8.9285715,17.678571 10.625,12.5 19.375,12.5 z"
       id="path8634"
       inkscape:connector-curvature="0" />
    <path
       style="fill:#cdb291;fill-opacity:0.85098039;stroke:#000000;stroke-width:1px;stroke-linecap:butt;stroke-linejoin:miter;stroke-opacity:1"
       d="m 19.642857,14.196428 c 2.589286,0.267857 10.897157,3.751089 10.714286,4.464286 -0.892857,3.482143 -3.718469,6.336204 -6.964286,5.625 -2.717343,-0.595407 -13.4259029,-4.333599 -12.946428,-6.071429 0.698421,-2.531389 6.607142,-4.285714 9.196428,-4.017857 z"
       id="path8636"
       inkscape:connector-curvature="0"
       sodipodi:nodetypes="zsssz" />
    <path
       style="fill:none;stroke:#000000;stroke-width:1px;stroke-linecap:butt;stroke-linejoin:miter;stroke-opacity:1;opacity:0.22123894"
       d="m 26.696429,19.017857 c 0.103766,0.244568 0.08929,0.46367 0.08929,0.714286"
       id="path8640"
       inkscape:connector-curvature="0" />
    <path
       style="fill:none;stroke:#000000;stroke-width:1px;stroke-linecap:butt;stroke-linejoin:miter;stroke-opacity:1;opacity:0.30088496"
       d="m 20.803571,16.428571 c 0.09327,0.305751 -0.271917,0.275979 -0.357142,0.446429 -0.01331,0.02662 0.02104,0.06824 0,0.08929 -0.04464,0.04464 -0.223215,-0.04464 -0.267858,0 -0.02104,0.02104 0.02104,0.06824 0,0.08929 -0.04209,0.04209 -0.136481,-0.04209 -0.178571,0 -0.02105,0.02104 0.02105,0.06824 0,0.08929 -0.02105,0.02105 -0.06824,-0.02105 -0.08929,0 -0.02104,0.02105 0.02105,0.06824 0,0.08929 -0.04464,0.04464 -0.223214,-0.04464 -0.267857,0 -0.02105,0.02105 0.02105,0.06824 0,0.08929 -0.04464,0.04464 -0.223214,-0.04464 -0.267857,0 -0.02105,0.02104 0,0.05952 0,0.08929"
       id="path8642"
       inkscape:connector-curvature="0" />
    <path
       style="fill:none;stroke:#000000;stroke-width:1px;stroke-linecap:butt;stroke-linejoin:miter;stroke-opacity:1;opacity:0.21238938"
       d="m 24.464286,20 c 0.08929,0.119048 0.386905,0.267857 0.267857,0.357143 C 24.613095,20.446428 24.359062,19.894776 24.464286,20 c 0.134753,0.134753 0.22239,0.311676 0.357143,0.446428 0.02104,0.02104 0.06824,-0.02104 0.08929,0 0.02105,0.02104 -0.01331,0.06267 0,0.08929 0.01882,0.03765 0.07046,0.05164 0.08929,0.08929 0.01331,0.02662 0,0.05952 0,0.08929 0,0.02976 0,0.05952 0,0.08929"
       id="path8644"
       inkscape:connector-curvature="0" />
    <path
       style="fill:none;stroke:#000000;stroke-width:1px;stroke-linecap:butt;stroke-linejoin:miter;stroke-opacity:1;opacity:0.1460177"
       d="m 16.517857,19.732143 c 0.475613,0.09512 0.294672,0.08929 0.535714,0.08929 0.02976,0 0.06267,-0.01331 0.08929,0 0.02684,0.01342 0.151733,0.165153 0.178572,0.178572 0.0354,0.0177 0.249604,-0.01825 0.267857,0 0.02104,0.02105 -0.02105,0.06824 0,0.08929 0.02104,0.02104 0.06267,-0.01331 0.08929,0 0.120956,0.06048 0.05762,0.118093 0.178572,0.178571 0.02662,0.01331 0.06824,-0.02105 0.08929,0 0.02104,0.02105 -0.02104,0.06824 0,0.08929 0.02104,0.02105 0.05952,0 0.08929,0 0.238096,0 0.476191,0 0.714286,0 0.02976,0 0.05952,0 0.08929,0 0.02976,0 0.06824,-0.02105 0.08929,0 0.02104,0.02105 -0.02104,0.06824 0,0.08929 0.04464,0.04464 0.223215,-0.04464 0.267858,0 0.02104,0.02104 0.02976,0.08929 0,0.08929 -0.02976,0 -0.02976,-0.08929 0,-0.08929 0.04209,0 0.05164,0.07046 0.08929,0.08929 0.02662,0.01331 0.06824,-0.02104 0.08929,0 0.02105,0.02105 -0.02105,0.06824 0,0.08929 0.02105,0.02105 0.05952,0 0.08929,0 0.02976,0 0.06824,0.02105 0.08929,0 0.02104,-0.02105 -0.02104,-0.06824 0,-0.08929 0.0036,-0.0036 0.324354,0 0.357143,0 0.02976,0 0.06824,-0.02104 0.08929,0 0.119048,0.119048 -0.148809,0.08929 0.08929,0.08929"
       id="path8646"
       inkscape:connector-curvature="0" />
    <path
       style="fill:none;stroke:#000000;stroke-width:1px;stroke-linecap:butt;stroke-linejoin:miter;stroke-opacity:1;opacity:0.16814159"
       d="m 21.875,17.767857 c 0.278665,0.302553 0.267857,0.265179 0.267857,0.535714 0,0.02976 -0.02105,0.06824 0,0.08929 0.02105,0.02105 0.06824,-0.02105 0.08929,0 0.04209,0.04209 -0.04209,0.136482 0,0.178571 0.02105,0.02104 0.06824,-0.02104 0.08929,0 0.04209,0.04209 -0.04209,0.136482 0,0.178572 0.02104,0.02105 0.06824,-0.02105 0.08929,0 0.02105,0.02105 -0.02104,0.06824 0,0.08929 0.04464,0.04464 0.223215,-0.04464 0.267857,0 0.02104,0.02104 -0.02104,0.06824 0,0.08929 0.02104,0.02104 0.06824,-0.02104 0.08929,0 0.02105,0.02104 -0.02105,0.06824 0,0.08929 0.02105,0.02105 0.06824,-0.02105 0.08929,0 0.02105,0.02105 0,0.05952 0,0.08929 0,0.178571 0,0.357143 0,0.535714 0,0.03279 0.0036,0.35355 0,0.357143 -0.02105,0.02105 -0.06824,-0.02105 -0.08929,0 -0.02105,0.02105 0.02105,0.06824 0,0.08929 -0.02105,0.02104 -0.06824,-0.02105 -0.08929,0 -0.04464,0.04464 0.04464,0.223214 0,0.267857 -0.02104,0.02105 -0.06824,-0.02105 -0.08929,0 -0.02105,0.02105 0.02104,0.06824 0,0.08929 C 22.470238,20.565476 22.5,20.297619 22.5,20.535714"
       id="path8648"
       inkscape:connector-curvature="0" />
    <path
       style="fill:none;stroke:#000000;stroke-width:1px;stroke-linecap:butt;stroke-linejoin:miter;stroke-opacity:1;opacity:0.19469027"
       d="m 15,16.25 c 0.476191,0 0.952381,0 1.428571,0 0.02165,0 0.264986,0.0029 0.267858,0 0.02962,-0.02962 -0.02962,-0.148956 0,-0.178572 0.02765,-0.02765 0.418781,0.02765 0.446428,0 0.02105,-0.02104 -0.02105,-0.06824 0,-0.08929 0.0029,-0.0029 0.246203,0 0.267857,0"
       id="path8650"
       inkscape:connector-curvature="0" />
    <path
       style="fill:none;stroke:#000000;stroke-width:1px;stroke-linecap:butt;stroke-linejoin:miter;stroke-opacity:1;opacity:0.17699115"
       d="m 22.946429,22.5 c 0.119047,0.02976 0.386904,-0.02976 0.357142,0.08929 -0.02976,0.119047 -0.443912,-0.176056 -0.357142,-0.08929 0.11333,0.11333 0.29438,0.127889 0.446428,0.178571 0.02824,0.0094 0.06824,-0.02104 0.08929,0 0.02105,0.02104 -0.02105,0.06824 0,0.08929 0.04209,0.04209 0.136482,-0.04209 0.178571,0 0.02105,0.02105 -0.02662,0.07598 0,0.08929 0.05776,0.02888 0.32507,-0.03207 0.357143,0 0.02105,0.02105 -0.02105,0.06824 0,0.08929 0.02105,0.02104 0.06824,-0.02104 0.08929,0 0.02105,0.02104 -0.02105,0.06824 0,0.08929 0.02105,0.02105 0.06824,-0.02104 0.08929,0 0.02104,0.02105 -0.02104,0.06824 0,0.08929 0.02104,0.02105 0.06824,-0.02105 0.08929,0 0.02996,0.02996 -0.02996,0.148611 0,0.178571 0.238096,0 -0.02976,-0.02976 0.08929,0.08929 0.02105,0.02105 0.06824,-0.02105 0.08929,0 0.08808,0.08808 -0.182954,0.178572 0.08929,0.178572 0.0421,0 0.442382,0.004 0.446429,0 0.02105,-0.02104 -0.02105,-0.06824 0,-0.08929 0.02105,-0.02105 0.05952,0 0.08929,0 0.02165,0 0.264986,0.0029 0.267857,0 0.02105,-0.02105 0,-0.05952 0,-0.08929"
       id="path8652"
       inkscape:connector-curvature="0" />
    <path
       style="fill:none;stroke:#000000;stroke-width:1px;stroke-linecap:butt;stroke-linejoin:miter;stroke-opacity:1;opacity:0.16814159"
       d="m 28.303572,20.446428 c 0.103946,0.698709 -0.333099,0.06524 -0.446429,0.178572 -0.02105,0.02105 0.02105,0.06824 0,0.08929 -0.02105,0.02104 -0.06824,-0.02105 -0.08929,0 -0.02105,0.02104 0.02105,0.06824 0,0.08929 -0.04209,0.04209 -0.125331,-0.02662 -0.178571,0 -0.03765,0.01882 -0.05164,0.07046 -0.08929,0.08929 -0.02662,0.01331 -0.06824,-0.02105 -0.08929,0 -0.02104,0.02105 0.02105,0.06824 0,0.08929 -0.04209,0.04209 -0.125331,-0.02662 -0.178571,0 -0.03765,0.01882 -0.05164,0.07046 -0.08929,0.08929 -0.05324,0.02662 -0.136482,-0.04209 -0.178571,0 -0.02105,0.02104 0.02104,0.06824 0,0.08929 -0.02105,0.02105 -0.06824,-0.02104 -0.08929,0 -0.02105,0.02105 0.02105,0.06824 0,0.08929 -0.04464,0.04464 -0.223214,-0.04464 -0.267857,0 -0.119048,0.119048 0.148809,0.08929 -0.08929,0.08929"
       id="path8654"
       inkscape:connector-curvature="0" />
  </g>
  <g
     inkscape:label="Drawing"
     inkscape:groupmode="layer"
     id="layer1"
     transform="translate(0,-1002.3622)"
     style="display:inline">
    <path
       style="fill:#b28d3f;fill-opacity:1;stroke:#000000;stroke-width:1px;stroke-linecap:butt;stroke-linejoin:miter;stroke-opacity:1"
       d="m 9.0913729,19.442885 c 1.2626911,3.535534 1.2626911,9.343912 1.0101521,10.354064 -0.2525377,1.010153 -3.5355334,6.565992 -3.0304572,8.838835 0.5050763,2.272843 1.767767,1.515229 4.2931482,1.262691 2.525382,-0.252539 16.920055,-1.262691 16.920055,-1.262691 0,0 4.545687,0.252538 4.04061,-3.030458 -0.505076,-3.282996 -1.515228,-9.596449 0,-14.142135 1.515229,-4.545687 0.252539,-1.767767 0.252539,-1.767767 0,0 -3.030458,7.576144 -10.101526,6.313453 C 15.404826,24.746186 9.0913729,19.442885 9.0913729,19.442885 z"
       id="path8625"
       inkscape:connector-curvature="0"
       transform="translate(0,1002.3622)" />
    <path
       style="fill:none;stroke:#000000;stroke-width:1px;stroke-linecap:butt;stroke-linejoin:miter;stroke-opacity:1"
       d="m 16.162441,27.01903 c 5.303301,2.777919 10.101525,2.272843 11.869292,0.757614"
       id="path8627"
       inkscape:connector-curvature="0"
       transform="translate(0,1002.3622)" />
    <path
       style="fill:none;stroke:#000000;stroke-width:1px;stroke-linecap:butt;stroke-linejoin:miter;stroke-opacity:1"
       d="m 12.374369,33.332483 c -1.010153,2.777919 -1.262691,3.535534 4.545686,3.788072 5.808377,0.252538 14.142136,-0.252538 11.364216,-2.777919"
       id="path8629"
       inkscape:connector-curvature="0"
       transform="translate(0,1002.3622)" />
    <path
       style="fill:none;stroke:#000000;stroke-width:1px;stroke-linecap:butt;stroke-linejoin:miter;stroke-opacity:1"
       d="m 8.5862966,18.685271 c -1.2626906,-2.272843 7.8286824,-8.08122 13.6370594,-6.060915 5.808377,2.020305 11.111678,4.798224 10.606602,6.818529"
       id="path8631"
       inkscape:connector-curvature="0"
       transform="translate(0,1002.3622)" />
    <path
       style="fill:#8d6a41;fill-opacity:1;stroke:#000000;stroke-width:1px;stroke-linecap:round;stroke-linejoin:round;stroke-opacity:1;display:inline"
       d="m 16.473214,1018.7907 c 0,-1.4285 -2.410713,-1.5178 -2.410713,-1.5178 l -5.0892862,-7.5893 -1.339286,0.2679 -1.071429,1.6964 5.9821432,6.7857 c 0,0 -0.446428,1.4286 0.267858,2.0536 0.714285,0.625 1.517857,0.8035 1.517857,0.8035"
       id="path8656"
       inkscape:connector-curvature="0" />
  </g>
  <g
     inkscape:groupmode="layer"
     id="layer4"
     inkscape:label="Icons"
     style="display:inline">
    <g
       id="g6807"
       transform="translate(27.516276,30.760198)">
      <g
         style="display:inline"
         inkscape:label="dimple"
         id="layer2">
        <path
           transform="matrix(0.273449,0,0,0.24188646,6.312303,3.274902)"
           d="m 22.857142,-0.95535719 c 0,3.52574649 -2.558372,6.38392879 -5.714285,6.38392879 -3.155913,0 -5.714286,-2.8581823 -5.714286,-6.38392879 0,-3.52574651 2.558373,-6.38392881 5.714286,-6.38392881 3.155913,0 5.714285,2.8581823 5.714285,6.38392881 z"
           sodipodi:ry="6.3839288"
           sodipodi:rx="5.7142859"
           sodipodi:cy="-0.95535719"
           sodipodi:cx="17.142857"
           id="path4088"
           style="fill:#d1c583;fill-opacity:1;stroke:#000000;stroke-width:1.55530667;stroke-miterlimit:4;stroke-opacity:1;stroke-dasharray:none"
           sodipodi:type="arc" />
      </g>
      <g
         style="display:inline"
         transform="translate(36.714287,-165.71933)"
         id="layer1-0"
         inkscape:label="pot">
        <path
           sodipodi:nodetypes="sssczcssscs"
           inkscape:connector-curvature="0"
           d="m -32.360131,182.99169 c -0.889916,-0.0352 -1.262691,-0.37881 -1.262691,-1.26269 0,-0.88389 5.02e-4,-4.66745 0,-6.43973 -3.21e-4,-1.13192 -1.38896,-2.27284 -1.38896,-2.27284 0,0 2.180186,-4.57695 9.364459,-4.57815 7.184274,-0.001 9.230531,4.5758 9.230531,4.5758 0,0 -1.388639,1.14092 -1.38896,2.27285 -5.02e-4,1.77227 0,5.55583 0,6.43972 0,0.88388 -0.372775,1.22747 -1.262691,1.26269 -0.892159,0.0353 -6.645844,-0.0358 -6.645844,-0.0358 0,0 -5.753685,0.0735 -6.645844,0.0382 z"
           style="fill:url(#linearGradient4075);fill-opacity:1;stroke:#000000;stroke-width:0.40000001;stroke-linecap:butt;stroke-linejoin:round;stroke-miterlimit:4;stroke-opacity:1;stroke-dasharray:none"
           id="path4052" />
        <path
           transform="translate(-36.714287,165.71933)"
           inkscape:connector-curvature="0"
           id="path4079"
           d="M 30.848214,7.8392857 z"
           style="fill:none;stroke:#000000;stroke-width:1px;stroke-linecap:butt;stroke-linejoin:miter;stroke-opacity:1" />
        <path
           sodipodi:nodetypes="cc"
           inkscape:connector-curvature="0"
           id="path4081"
           d="m -16.678572,173.00533 -18.169643,-0.0271"
           style="fill:none;stroke:#000000;stroke-width:0.40000001;stroke-linecap:butt;stroke-linejoin:miter;stroke-miterlimit:4;stroke-opacity:1;stroke-dasharray:none" />
      </g>
    </g>
    <text
       xml:space="preserve"
       style="font-size:13px;font-style:normal;font-weight:normal;line-height:125%;letter-spacing:0px;word-spacing:0px;fill:#000000;fill-opacity:1;stroke:none;font-family:Sans"
       x="35.102806"
       y="47.474617"
       id="text6815"
       sodipodi:linespacing="125%"><tspan
         sodipodi:role="line"
         id="tspan6817"
         x="35.102806"
         y="47.474617">1</tspan></text>
  </g>
  <g
     inkscape:groupmode="layer"
     id="layer11"
     inkscape:label="Layer#1"
     style="display:none">
    <path
       sodipodi:type="arc"
       style="fill:#d3cdb0;fill-opacity:0.97647059;stroke:#000000;stroke-width:0.5;stroke-miterlimit:4;stroke-opacity:1;stroke-dasharray:none"
       id="path6822"
       sodipodi:cx="40.532372"
       sodipodi:cy="8.4574766"
       sodipodi:rx="6.9447989"
       sodipodi:ry="7.1973367"
       d="m 47.47717,8.4574766 a 6.9447989,7.1973367 0 1 1 -13.889597,0 6.9447989,7.1973367 0 1 1 13.889597,0 z"
       transform="matrix(1.0357598,0,0,0.99941739,-0.67134623,0.51002708)" />
    <text
       xml:space="preserve"
       style="font-size:13px;font-style:normal;font-weight:normal;line-height:125%;letter-spacing:0px;word-spacing:0px;fill:#000000;fill-opacity:1;stroke:none;font-family:Sans"
       x="37.880722"
       y="13.38197"
       id="text6824"
       sodipodi:linespacing="125%"><tspan
         sodipodi:role="line"
         id="tspan6826"
         x="37.880722"
         y="13.38197">5</tspan></text>
  </g>
  <g
     inkscape:groupmode="layer"
     id="layer10"
     inkscape:label="Layer"
     style="display:none">
    <g
       style="display:inline"
       transform="matrix(0.31508102,0,0,0.33604188,58.604102,-20.650258)"
       id="layer1-7-7"
       inkscape:label="Layer 1">
      <path
         inkscape:connector-curvature="0"
         id="path6747-8"
         d="m -177.14286,157.8979 c 0,46.07142 20,46.07142 20,46.07142 0,0 20,1e-5 20,-46.07142 z"
         style="fill:url(#linearGradient6723);fill-opacity:1;stroke:#000000;stroke-width:2;stroke-linecap:butt;stroke-linejoin:miter;stroke-miterlimit:4;stroke-opacity:1;stroke-dasharray:none" />
    </g>
    <text
       xml:space="preserve"
       style="font-size:18px;font-style:normal;font-weight:normal;line-height:125%;letter-spacing:0px;word-spacing:0px;fill:#000000;fill-opacity:1;stroke:none;display:inline;font-family:Sans"
       x="5.1429248"
       y="38.106262"
       id="text6081-1"
       sodipodi:linespacing="125%"><tspan
         y="38.106262"
         x="5.1429248"
         sodipodi:role="line"
         id="tspan6083-6" /></text>
    <text
       xml:space="preserve"
       style="font-size:13px;font-style:normal;font-weight:normal;line-height:125%;letter-spacing:0px;word-spacing:0px;fill:#000000;fill-opacity:1;stroke:none;display:inline;font-family:Sans"
       x="5.8572192"
       y="44.356258"
       id="text6085-0"
       sodipodi:linespacing="125%"><tspan
         sodipodi:role="line"
         x="5.8572192"
         y="44.356258"
         id="tspan6408-9">2</tspan></text>
  </g>
</svg>
