<?xml version="1.0" encoding="UTF-8" standalone="no"?>
<!-- Created with Inkscape (http://www.inkscape.org/) -->

<svg
   xmlns:dc="http://purl.org/dc/elements/1.1/"
   xmlns:cc="http://creativecommons.org/ns#"
   xmlns:rdf="http://www.w3.org/1999/02/22-rdf-syntax-ns#"
   xmlns:svg="http://www.w3.org/2000/svg"
   xmlns="http://www.w3.org/2000/svg"
   xmlns:xlink="http://www.w3.org/1999/xlink"
   xmlns:sodipodi="http://sodipodi.sourceforge.net/DTD/sodipodi-0.dtd"
   xmlns:inkscape="http://www.inkscape.org/namespaces/inkscape"
   width="50"
   height="50"
   id="svg3067"
   version="1.1"
   inkscape:version="0.48.2 r9819"
   sodipodi:docname="Grapes.svg">
  <defs
     id="defs3069">
    <linearGradient
       id="linearGradient8564">
      <stop
         style="stop-color:#4c3b27;stop-opacity:1;"
         offset="0"
         id="stop8566" />
      <stop
         id="stop8570"
         offset="1"
         style="stop-color:#4c3b27;stop-opacity:1;" />
    </linearGradient>
    <linearGradient
       id="linearGradient6996">
      <stop
         style="stop-color:#e3c390;stop-opacity:0.97647059;"
         offset="0"
         id="stop6998" />
      <stop
         style="stop-color:#633423;stop-opacity:0.97647059;"
         offset="1"
         id="stop7000" />
    </linearGradient>
    <linearGradient
       id="linearGradient6350">
      <stop
         id="stop6352"
         offset="0"
         style="stop-color:#dba079;stop-opacity:1;" />
      <stop
         id="stop6354"
         offset="1"
         style="stop-color:#74473a;stop-opacity:1;" />
    </linearGradient>
    <linearGradient
       id="linearGradient6326">
      <stop
         style="stop-color:#e6bda3;stop-opacity:1;"
         offset="0"
         id="stop6328" />
      <stop
         style="stop-color:#aa6756;stop-opacity:1;"
         offset="1"
         id="stop6330" />
    </linearGradient>
    <linearGradient
       id="linearGradient4069">
      <stop
         id="stop4071"
         offset="0"
         style="stop-color:#eeedd4;stop-opacity:1;" />
      <stop
         style="stop-color:#b59f36;stop-opacity:1;"
         offset="1"
         id="stop4077" />
    </linearGradient>
    <linearGradient
       id="linearGradient6794">
      <stop
         id="stop6796"
         offset="0"
         style="stop-color:#e6d944;stop-opacity:1;" />
      <stop
         id="stop6798"
         offset="1"
         style="stop-color:#ffffff;stop-opacity:1;" />
    </linearGradient>
    <linearGradient
       gradientUnits="userSpaceOnUse"
       y2="166.96429"
       x2="43.035713"
       y1="213.03571"
       x1="43.035713"
       id="linearGradient6800"
       xlink:href="#linearGradient6794"
       inkscape:collect="always" />
    <linearGradient
       inkscape:collect="always"
       xlink:href="#linearGradient6794-6"
       id="linearGradient4211-7"
       gradientUnits="userSpaceOnUse"
       x1="43.035713"
       y1="213.03571"
       x2="43.035713"
       y2="166.96429"
       gradientTransform="translate(-200.17857,-9.0663888)" />
    <linearGradient
       id="linearGradient6794-6">
      <stop
         id="stop6796-7"
         offset="0"
         style="stop-color:#e6d944;stop-opacity:1;" />
      <stop
         id="stop6798-8"
         offset="1"
         style="stop-color:#ffffff;stop-opacity:1;" />
    </linearGradient>
    <linearGradient
       y2="166.96429"
       x2="43.035713"
       y1="213.03571"
       x1="43.035713"
       gradientTransform="translate(-200.17857,-9.0663888)"
       gradientUnits="userSpaceOnUse"
       id="linearGradient6723"
       xlink:href="#linearGradient6794-6"
       inkscape:collect="always" />
    <linearGradient
       gradientTransform="translate(-28.947442,-0.59356385)"
       gradientUnits="userSpaceOnUse"
       y2="176.31338"
       x2="12.73065"
       y1="176.31338"
       x1="-6.2643404"
       id="linearGradient4075"
       xlink:href="#linearGradient4069-5"
       inkscape:collect="always" />
    <linearGradient
       id="linearGradient4069-5">
      <stop
         id="stop4071-8"
         offset="0"
         style="stop-color:#eeedd4;stop-opacity:1;" />
      <stop
         style="stop-color:#b59f36;stop-opacity:1;"
         offset="1"
         id="stop4077-9" />
    </linearGradient>
    <linearGradient
       inkscape:collect="always"
       xlink:href="#linearGradient6350"
       id="linearGradient8460"
       x1="2.8418586"
       y1="24.996986"
       x2="31.449493"
       y2="24.996986"
       gradientUnits="userSpaceOnUse" />
    <linearGradient
       inkscape:collect="always"
       xlink:href="#linearGradient6350-5"
       id="linearGradient8460-3"
       x1="2.8418586"
       y1="24.996986"
       x2="31.449493"
       y2="24.996986"
       gradientUnits="userSpaceOnUse" />
    <linearGradient
       id="linearGradient6350-5">
      <stop
         id="stop6352-5"
         offset="0"
         style="stop-color:#dba079;stop-opacity:1;" />
      <stop
         id="stop6354-1"
         offset="1"
         style="stop-color:#74473a;stop-opacity:1;" />
    </linearGradient>
    <linearGradient
       gradientTransform="translate(-0.35996185,1002.1866)"
       y2="24.996986"
       x2="31.449493"
       y1="24.996986"
       x1="2.8418586"
       gradientUnits="userSpaceOnUse"
       id="linearGradient8493"
       xlink:href="#linearGradient6350-5"
       inkscape:collect="always" />
    <linearGradient
       gradientTransform="translate(-0.35996185,1002.1866)"
       y2="24.996986"
       x2="31.449493"
       y1="24.996986"
       x1="2.8418586"
       gradientUnits="userSpaceOnUse"
       id="linearGradient8493-5"
       xlink:href="#linearGradient6350-5-5"
       inkscape:collect="always" />
    <linearGradient
       id="linearGradient6350-5-5">
      <stop
         id="stop6352-5-8"
         offset="0"
         style="stop-color:#dba079;stop-opacity:1;" />
      <stop
         id="stop6354-1-4"
         offset="1"
         style="stop-color:#74473a;stop-opacity:1;" />
    </linearGradient>
    <linearGradient
       y2="24.996986"
       x2="31.449493"
       y1="24.996986"
       x1="2.8418586"
       gradientTransform="matrix(0.99786412,0.29144495,-0.28454584,1.086396,14.928848,995.00561)"
       gradientUnits="userSpaceOnUse"
       id="linearGradient8527"
       xlink:href="#linearGradient6350-5-5"
       inkscape:collect="always" />
    <radialGradient
       inkscape:collect="always"
       xlink:href="#linearGradient8564"
       id="radialGradient8556"
       cx="22.142857"
       cy="23.928572"
       fx="22.142857"
       fy="23.928572"
       r="7.5"
       gradientTransform="matrix(1,0,0,0.85714283,0,3.418368)"
       gradientUnits="userSpaceOnUse" />
    <linearGradient
       id="linearGradient4069-5-0">
      <stop
         id="stop4071-8-4"
         offset="0"
         style="stop-color:#eeedd4;stop-opacity:1;" />
      <stop
         style="stop-color:#b59f36;stop-opacity:1;"
         offset="1"
         id="stop4077-9-9" />
    </linearGradient>
    <linearGradient
       gradientTransform="translate(-28.947442,-0.59356385)"
       gradientUnits="userSpaceOnUse"
       y2="176.31339"
       x2="12.73065"
       y1="176.31339"
       x1="-6.2643404"
       id="linearGradient4075-9-3"
       xlink:href="#linearGradient4069-5-0-1"
       inkscape:collect="always" />
    <linearGradient
       id="linearGradient4069-5-0-1">
      <stop
         id="stop4071-8-4-1"
         offset="0"
         style="stop-color:#eeedd4;stop-opacity:1;" />
      <stop
         style="stop-color:#b59f36;stop-opacity:1;"
         offset="1"
         id="stop4077-9-9-9" />
    </linearGradient>
    <filter
       inkscape:collect="always"
       id="filter9221"
       x="-0.17785166"
       width="1.3557033"
       y="-0.068715415"
       height="1.1374308">
      <feGaussianBlur
         inkscape:collect="always"
         stdDeviation="0.22496118"
         id="feGaussianBlur9223" />
    </filter>
    <filter
       color-interpolation-filters="sRGB"
       inkscape:collect="always"
       id="filter9221-9"
       x="-0.17785166"
       width="1.3557034"
       y="-0.068715416"
       height="1.1374308">
      <feGaussianBlur
         inkscape:collect="always"
         stdDeviation="0.22496118"
         id="feGaussianBlur9223-5" />
    </filter>
    <filter
       color-interpolation-filters="sRGB"
       inkscape:collect="always"
       id="filter9221-5"
       x="-0.17785166"
       width="1.3557034"
       y="-0.068715416"
       height="1.1374308">
      <feGaussianBlur
         inkscape:collect="always"
         stdDeviation="0.22496118"
         id="feGaussianBlur9223-6" />
    </filter>
    <filter
       color-interpolation-filters="sRGB"
       inkscape:collect="always"
       id="filter9221-5-5"
       x="-0.17785166"
       width="1.3557034"
       y="-0.068715416"
       height="1.1374308">
      <feGaussianBlur
         inkscape:collect="always"
         stdDeviation="0.22496118"
         id="feGaussianBlur9223-6-9" />
    </filter>
    <filter
       color-interpolation-filters="sRGB"
       inkscape:collect="always"
       id="filter9221-5-6"
       x="-0.17785166"
       width="1.3557034"
       y="-0.068715416"
       height="1.1374308">
      <feGaussianBlur
         inkscape:collect="always"
         stdDeviation="0.22496118"
         id="feGaussianBlur9223-6-3" />
    </filter>
  </defs>
  <sodipodi:namedview
     id="base"
     pagecolor="#ffffff"
     bordercolor="#666666"
     borderopacity="1.0"
     inkscape:pageopacity="0.0"
     inkscape:pageshadow="2"
     inkscape:zoom="2.8"
     inkscape:cx="-33.162327"
     inkscape:cy="48.072133"
     inkscape:document-units="px"
     inkscape:current-layer="layer15"
     showgrid="false"
     inkscape:window-width="1680"
     inkscape:window-height="988"
     inkscape:window-x="2552"
     inkscape:window-y="1016"
     inkscape:window-maximized="1" />
  <metadata
     id="metadata3072">
    <rdf:RDF>
      <cc:Work
         rdf:about="">
        <dc:format>image/svg+xml</dc:format>
        <dc:type
           rdf:resource="http://purl.org/dc/dcmitype/StillImage" />
        <dc:title />
      </cc:Work>
    </rdf:RDF>
  </metadata>
  <g
     inkscape:groupmode="layer"
     id="layer5"
     inkscape:label="Background"
     style="display:inline">
    <rect
       style="fill:#aa4864;fill-opacity:1;stroke:none"
       id="rect5277"
       width="50"
       height="50"
       x="0"
       y="0" />
  </g>
  <g
     inkscape:label="Drawing"
     inkscape:groupmode="layer"
     id="layer1"
     transform="translate(0,-1002.3622)"
     style="display:inline">
    <path
       sodipodi:type="arc"
       style="fill:#533b5d;fill-opacity:1;stroke:#000000;stroke-width:0.87743938;stroke-linecap:round;stroke-linejoin:round;stroke-miterlimit:4;stroke-opacity:1;stroke-dasharray:none;display:inline"
       id="path8695-5"
       sodipodi:cx="29.553572"
       sodipodi:cy="24.910715"
       sodipodi:rx="2.3991122"
       sodipodi:ry="2.3991122"
       d="m 31.952684,24.910715 c 0,1.324993 -1.074119,2.399112 -2.399112,2.399112 -1.324993,0 -2.399113,-1.074119 -2.399113,-2.399112 0,-1.324993 1.07412,-2.399112 2.399113,-2.399112 1.324993,0 2.399112,1.074119 2.399112,2.399112 z"
       transform="matrix(0.79777592,0,0,0.79777592,4.2800151,1001.4176)" />
    <path
       sodipodi:type="arc"
       style="fill:#533b5d;fill-opacity:1;stroke:#000000;stroke-width:0.87743938;stroke-linecap:round;stroke-linejoin:round;stroke-miterlimit:4;stroke-opacity:1;stroke-dasharray:none"
       id="path8695"
       sodipodi:cx="29.553572"
       sodipodi:cy="24.910715"
       sodipodi:rx="2.3991122"
       sodipodi:ry="2.3991122"
       d="m 31.952684,24.910715 c 0,1.324993 -1.074119,2.399112 -2.399112,2.399112 -1.324993,0 -2.399113,-1.074119 -2.399113,-2.399112 0,-1.324993 1.07412,-2.399112 2.399113,-2.399112 1.324993,0 2.399112,1.074119 2.399112,2.399112 z"
       transform="matrix(0.79777592,0,0,0.79777592,6.3335868,1003.114)" />
    <path
       sodipodi:type="arc"
       style="fill:#533b5d;fill-opacity:1;stroke:#000000;stroke-width:0.87743938;stroke-linecap:round;stroke-linejoin:round;stroke-miterlimit:4;stroke-opacity:1;stroke-dasharray:none;display:inline"
       id="path8695-9"
       sodipodi:cx="29.553572"
       sodipodi:cy="24.910715"
       sodipodi:rx="2.3991122"
       sodipodi:ry="2.3991122"
       d="m 31.952684,24.910715 c 0,1.324993 -1.074119,2.399112 -2.399112,2.399112 -1.324993,0 -2.399113,-1.074119 -2.399113,-2.399112 0,-1.324993 1.07412,-2.399112 2.399113,-2.399112 1.324993,0 2.399112,1.074119 2.399112,2.399112 z"
       transform="matrix(0.79777592,0,0,0.79777592,7.1371579,1006.4176)" />
    <path
       sodipodi:type="arc"
       style="fill:#533b5d;fill-opacity:1;stroke:#000000;stroke-width:0.87743938;stroke-linecap:round;stroke-linejoin:round;stroke-miterlimit:4;stroke-opacity:1;stroke-dasharray:none;display:inline"
       id="path8695-0"
       sodipodi:cx="29.553572"
       sodipodi:cy="24.910715"
       sodipodi:rx="2.3991122"
       sodipodi:ry="2.3991122"
       d="m 31.952684,24.910715 c 0,1.324993 -1.074119,2.399112 -2.399112,2.399112 -1.324993,0 -2.399113,-1.074119 -2.399113,-2.399112 0,-1.324993 1.07412,-2.399112 2.399113,-2.399112 1.324993,0 2.399112,1.074119 2.399112,2.399112 z"
       transform="matrix(0.79777592,0,0,0.79777592,3.9228722,1005.3462)" />
    <path
       sodipodi:type="arc"
       style="fill:#533b5d;fill-opacity:1;stroke:#000000;stroke-width:0.87743938;stroke-linecap:round;stroke-linejoin:round;stroke-miterlimit:4;stroke-opacity:1;stroke-dasharray:none;display:inline"
       id="path8695-3"
       sodipodi:cx="29.553572"
       sodipodi:cy="24.910715"
       sodipodi:rx="2.3991122"
       sodipodi:ry="2.3991122"
       d="m 31.952684,24.910715 c 0,1.324993 -1.074119,2.399112 -2.399112,2.399112 -1.324993,0 -2.399113,-1.074119 -2.399113,-2.399112 0,-1.324993 1.07412,-2.399112 2.399113,-2.399112 1.324993,0 2.399112,1.074119 2.399112,2.399112 z"
       transform="matrix(0.79777592,0,0,0.79777592,5.5300151,1009.0962)" />
    <path
       sodipodi:type="arc"
       style="fill:#533b5d;fill-opacity:1;stroke:#000000;stroke-width:0.87743938;stroke-linecap:round;stroke-linejoin:round;stroke-miterlimit:4;stroke-opacity:1;stroke-dasharray:none;display:inline"
       id="path8695-03"
       sodipodi:cx="29.553572"
       sodipodi:cy="24.910715"
       sodipodi:rx="2.3991122"
       sodipodi:ry="2.3991122"
       d="m 31.952684,24.910715 c 0,1.324993 -1.074119,2.399112 -2.399112,2.399112 -1.324993,0 -2.399113,-1.074119 -2.399113,-2.399112 0,-1.324993 1.07412,-2.399112 2.399113,-2.399112 1.324993,0 2.399112,1.074119 2.399112,2.399112 z"
       transform="matrix(0.79777592,0,0,0.79777592,2.137158,1008.2033)" />
    <path
       sodipodi:type="arc"
       style="fill:#533b5d;fill-opacity:1;stroke:#000000;stroke-width:0.87743938;stroke-linecap:round;stroke-linejoin:round;stroke-miterlimit:4;stroke-opacity:1;stroke-dasharray:none;display:inline"
       id="path8695-6"
       sodipodi:cx="29.553572"
       sodipodi:cy="24.910715"
       sodipodi:rx="2.3991122"
       sodipodi:ry="2.3991122"
       d="m 31.952684,24.910715 c 0,1.324993 -1.074119,2.399112 -2.399112,2.399112 -1.324993,0 -2.399113,-1.074119 -2.399113,-2.399112 0,-1.324993 1.07412,-2.399112 2.399113,-2.399112 1.324993,0 2.399112,1.074119 2.399112,2.399112 z"
       transform="matrix(0.79777592,0,0,0.79777592,3.3871582,1011.1498)" />
    <path
       sodipodi:type="arc"
       style="fill:#533b5d;fill-opacity:1;stroke:#000000;stroke-width:0.87743938;stroke-linecap:round;stroke-linejoin:round;stroke-miterlimit:4;stroke-opacity:1;stroke-dasharray:none;display:inline"
       id="path8695-7"
       sodipodi:cx="29.553572"
       sodipodi:cy="24.910715"
       sodipodi:rx="2.3991122"
       sodipodi:ry="2.3991122"
       d="m 31.952684,24.910715 c 0,1.324993 -1.074119,2.399112 -2.399112,2.399112 -1.324993,0 -2.399113,-1.074119 -2.399113,-2.399112 0,-1.324993 1.07412,-2.399112 2.399113,-2.399112 1.324993,0 2.399112,1.074119 2.399112,2.399112 z"
       transform="matrix(0.79777592,0,0,0.79777592,-0.36284255,1010.0784)" />
    <path
       sodipodi:type="arc"
       style="fill:#533b5d;fill-opacity:1;stroke:#000000;stroke-width:0.87743938;stroke-linecap:round;stroke-linejoin:round;stroke-miterlimit:4;stroke-opacity:1;stroke-dasharray:none;display:inline"
       id="path8695-8"
       sodipodi:cx="29.553572"
       sodipodi:cy="24.910715"
       sodipodi:rx="2.3991122"
       sodipodi:ry="2.3991122"
       d="m 31.952684,24.910715 c 0,1.324993 -1.074119,2.399112 -2.399112,2.399112 -1.324993,0 -2.399113,-1.074119 -2.399113,-2.399112 0,-1.324993 1.07412,-2.399112 2.399113,-2.399112 1.324993,0 2.399112,1.074119 2.399112,2.399112 z"
       transform="matrix(0.79777592,0,0,0.79777592,0.70858645,1013.1141)" />
    <path
       sodipodi:type="arc"
       style="fill:#533b5d;fill-opacity:1;stroke:#000000;stroke-width:0.87743938;stroke-linecap:round;stroke-linejoin:round;stroke-miterlimit:4;stroke-opacity:1;stroke-dasharray:none;display:inline"
       id="path8695-36"
       sodipodi:cx="29.553572"
       sodipodi:cy="24.910715"
       sodipodi:rx="2.3991122"
       sodipodi:ry="2.3991122"
       d="m 31.952684,24.910715 c 0,1.324993 -1.074119,2.399112 -2.399112,2.399112 -1.324993,0 -2.399113,-1.074119 -2.399113,-2.399112 0,-1.324993 1.07412,-2.399112 2.399113,-2.399112 1.324993,0 2.399112,1.074119 2.399112,2.399112 z"
       transform="matrix(0.79777592,0,0,0.79777592,-3.3985565,1011.3284)" />
    <path
       sodipodi:type="arc"
       style="fill:#533b5d;fill-opacity:1;stroke:#000000;stroke-width:0.87743938;stroke-linecap:round;stroke-linejoin:round;stroke-miterlimit:4;stroke-opacity:1;stroke-dasharray:none;display:inline"
       id="path8695-4"
       sodipodi:cx="29.553572"
       sodipodi:cy="24.910715"
       sodipodi:rx="2.3991122"
       sodipodi:ry="2.3991122"
       d="m 31.952684,24.910715 c 0,1.324993 -1.074119,2.399112 -2.399112,2.399112 -1.324993,0 -2.399113,-1.074119 -2.399113,-2.399112 0,-1.324993 1.07412,-2.399112 2.399113,-2.399112 1.324993,0 2.399112,1.074119 2.399112,2.399112 z"
       transform="matrix(0.79777592,0,0,0.79777592,-6.9699855,1010.0784)" />
    <path
       sodipodi:type="arc"
       style="fill:#533b5d;fill-opacity:1;stroke:#000000;stroke-width:0.87743938;stroke-linecap:round;stroke-linejoin:round;stroke-miterlimit:4;stroke-opacity:1;stroke-dasharray:none;display:inline"
       id="path8695-41"
       sodipodi:cx="29.553572"
       sodipodi:cy="24.910715"
       sodipodi:rx="2.3991122"
       sodipodi:ry="2.3991122"
       d="m 31.952684,24.910715 c 0,1.324993 -1.074119,2.399112 -2.399112,2.399112 -1.324993,0 -2.399113,-1.074119 -2.399113,-2.399112 0,-1.324993 1.07412,-2.399112 2.399113,-2.399112 1.324993,0 2.399112,1.074119 2.399112,2.399112 z"
       transform="matrix(0.79777592,0,0,0.79777592,-8.7556995,1012.5784)" />
    <path
       sodipodi:type="arc"
       style="fill:#533b5d;fill-opacity:1;stroke:#000000;stroke-width:0.87743938;stroke-linecap:round;stroke-linejoin:round;stroke-miterlimit:4;stroke-opacity:1;stroke-dasharray:none;display:inline"
       id="path8695-95"
       sodipodi:cx="29.553572"
       sodipodi:cy="24.910715"
       sodipodi:rx="2.3991122"
       sodipodi:ry="2.3991122"
       d="m 31.952684,24.910715 c 0,1.324993 -1.074119,2.399112 -2.399112,2.399112 -1.324993,0 -2.399113,-1.074119 -2.399113,-2.399112 0,-1.324993 1.07412,-2.399112 2.399113,-2.399112 1.324993,0 2.399112,1.074119 2.399112,2.399112 z"
       transform="matrix(0.79777592,0,0,0.79777592,-5.3628425,1013.2927)" />
    <path
       sodipodi:type="arc"
       style="fill:#533b5d;fill-opacity:1;stroke:#000000;stroke-width:0.87743938;stroke-linecap:round;stroke-linejoin:round;stroke-miterlimit:4;stroke-opacity:1;stroke-dasharray:none;display:inline"
       id="path8695-57"
       sodipodi:cx="29.553572"
       sodipodi:cy="24.910715"
       sodipodi:rx="2.3991122"
       sodipodi:ry="2.3991122"
       d="m 31.952684,24.910715 c 0,1.324993 -1.074119,2.399112 -2.399112,2.399112 -1.324993,0 -2.399113,-1.074119 -2.399113,-2.399112 0,-1.324993 1.07412,-2.399112 2.399113,-2.399112 1.324993,0 2.399112,1.074119 2.399112,2.399112 z"
       transform="matrix(0.79777592,0,0,0.79777592,-1.9699855,1013.6498)" />
    <path
       sodipodi:type="arc"
       style="fill:#533b5d;fill-opacity:1;stroke:#000000;stroke-width:0.87743938;stroke-linecap:round;stroke-linejoin:round;stroke-miterlimit:4;stroke-opacity:1;stroke-dasharray:none;display:inline"
       id="path8695-47"
       sodipodi:cx="29.553572"
       sodipodi:cy="24.910715"
       sodipodi:rx="2.3991122"
       sodipodi:ry="2.3991122"
       d="m 31.952684,24.910715 c 0,1.324993 -1.074119,2.399112 -2.399112,2.399112 -1.324993,0 -2.399113,-1.074119 -2.399113,-2.399112 0,-1.324993 1.07412,-2.399112 2.399113,-2.399112 1.324993,0 2.399112,1.074119 2.399112,2.399112 z"
       transform="matrix(0.79777592,0,0,0.79777592,-1.4342705,1015.7927)" />
    <path
       sodipodi:type="arc"
       style="fill:#533b5d;fill-opacity:1;stroke:#000000;stroke-width:0.87743938;stroke-linecap:round;stroke-linejoin:round;stroke-miterlimit:4;stroke-opacity:1;stroke-dasharray:none;display:inline"
       id="path8695-34"
       sodipodi:cx="29.553572"
       sodipodi:cy="24.910715"
       sodipodi:rx="2.3991122"
       sodipodi:ry="2.3991122"
       d="m 31.952684,24.910715 c 0,1.324993 -1.074119,2.399112 -2.399112,2.399112 -1.324993,0 -2.399113,-1.074119 -2.399113,-2.399112 0,-1.324993 1.07412,-2.399112 2.399113,-2.399112 1.324993,0 2.399112,1.074119 2.399112,2.399112 z"
       transform="matrix(0.79777592,0,0,0.79777592,-4.6485565,1016.1498)" />
    <path
       sodipodi:type="arc"
       style="fill:#533b5d;fill-opacity:1;stroke:#000000;stroke-width:0.87743938;stroke-linecap:round;stroke-linejoin:round;stroke-miterlimit:4;stroke-opacity:1;stroke-dasharray:none;display:inline"
       id="path8695-08"
       sodipodi:cx="29.553572"
       sodipodi:cy="24.910715"
       sodipodi:rx="2.3991122"
       sodipodi:ry="2.3991122"
       d="m 31.952684,24.910715 c 0,1.324993 -1.074119,2.399112 -2.399112,2.399112 -1.324993,0 -2.399113,-1.074119 -2.399113,-2.399112 0,-1.324993 1.07412,-2.399112 2.399113,-2.399112 1.324993,0 2.399112,1.074119 2.399112,2.399112 z"
       transform="matrix(0.79777592,0,0,0.79777592,-8.0414135,1015.2569)" />
    <path
       sodipodi:type="arc"
       style="fill:#533b5d;fill-opacity:1;stroke:#000000;stroke-width:0.87743938;stroke-linecap:round;stroke-linejoin:round;stroke-miterlimit:4;stroke-opacity:1;stroke-dasharray:none;display:inline"
       id="path8695-81"
       sodipodi:cx="29.553572"
       sodipodi:cy="24.910715"
       sodipodi:rx="2.3991122"
       sodipodi:ry="2.3991122"
       d="m 31.952684,24.910715 c 0,1.324993 -1.074119,2.399112 -2.399112,2.399112 -1.324993,0 -2.399113,-1.074119 -2.399113,-2.399112 0,-1.324993 1.07412,-2.399112 2.399113,-2.399112 1.324993,0 2.399112,1.074119 2.399112,2.399112 z"
       transform="matrix(0.79777592,0,0,0.79777592,-6.7914135,1018.4712)" />
    <path
       sodipodi:type="arc"
       style="fill:#533b5d;fill-opacity:1;stroke:#000000;stroke-width:0.87743938;stroke-linecap:round;stroke-linejoin:round;stroke-miterlimit:4;stroke-opacity:1;stroke-dasharray:none;display:inline"
       id="path8695-66"
       sodipodi:cx="29.553572"
       sodipodi:cy="24.910715"
       sodipodi:rx="2.3991122"
       sodipodi:ry="2.3991122"
       d="m 31.952684,24.910715 c 0,1.324993 -1.074119,2.399112 -2.399112,2.399112 -1.324993,0 -2.399113,-1.074119 -2.399113,-2.399112 0,-1.324993 1.07412,-2.399112 2.399113,-2.399112 1.324993,0 2.399112,1.074119 2.399112,2.399112 z"
       transform="matrix(0.79777592,0,0,0.79777592,-1.2556995,1018.2927)" />
    <path
       sodipodi:type="arc"
       style="fill:#533b5d;fill-opacity:1;stroke:#000000;stroke-width:0.87743938;stroke-linecap:round;stroke-linejoin:round;stroke-miterlimit:4;stroke-opacity:1;stroke-dasharray:none;display:inline"
       id="path8695-52"
       sodipodi:cx="29.553572"
       sodipodi:cy="24.910715"
       sodipodi:rx="2.3991122"
       sodipodi:ry="2.3991122"
       d="m 31.952684,24.910715 c 0,1.324993 -1.074119,2.399112 -2.399112,2.399112 -1.324993,0 -2.399113,-1.074119 -2.399113,-2.399112 0,-1.324993 1.07412,-2.399112 2.399113,-2.399112 1.324993,0 2.399112,1.074119 2.399112,2.399112 z"
       transform="matrix(0.79777592,0,0,0.79777592,-3.5771285,1018.4712)" />
    <path
       sodipodi:type="arc"
       style="fill:#533b5d;fill-opacity:1;stroke:#000000;stroke-width:0.87743938;stroke-linecap:round;stroke-linejoin:round;stroke-miterlimit:4;stroke-opacity:1;stroke-dasharray:none;display:inline"
       id="path8695-32"
       sodipodi:cx="29.553572"
       sodipodi:cy="24.910715"
       sodipodi:rx="2.3991122"
       sodipodi:ry="2.3991122"
       d="m 31.952684,24.910715 c 0,1.324993 -1.074119,2.399112 -2.399112,2.399112 -1.324993,0 -2.399113,-1.074119 -2.399113,-2.399112 0,-1.324993 1.07412,-2.399112 2.399113,-2.399112 1.324993,0 2.399112,1.074119 2.399112,2.399112 z"
       transform="matrix(0.79777592,0,0,0.79777592,-1.7914135,1021.3284)" />
    <path
       sodipodi:type="arc"
       style="fill:#533b5d;fill-opacity:1;stroke:#000000;stroke-width:0.87743938;stroke-linecap:round;stroke-linejoin:round;stroke-miterlimit:4;stroke-opacity:1;stroke-dasharray:none;display:inline"
       id="path8695-46"
       sodipodi:cx="29.553572"
       sodipodi:cy="24.910715"
       sodipodi:rx="2.3991122"
       sodipodi:ry="2.3991122"
       d="m 31.952684,24.910715 c 0,1.324993 -1.074119,2.399112 -2.399112,2.399112 -1.324993,0 -2.399113,-1.074119 -2.399113,-2.399112 0,-1.324993 1.07412,-2.399112 2.399113,-2.399112 1.324993,0 2.399112,1.074119 2.399112,2.399112 z"
       transform="matrix(0.79777592,0,0,0.79777592,-4.8271275,1021.3284)" />
    <path
       sodipodi:type="arc"
       style="fill:#533b5d;fill-opacity:1;stroke:#000000;stroke-width:0.87743938;stroke-linecap:round;stroke-linejoin:round;stroke-miterlimit:4;stroke-opacity:1;stroke-dasharray:none;display:inline"
       id="path8695-2"
       sodipodi:cx="29.553572"
       sodipodi:cy="24.910715"
       sodipodi:rx="2.3991122"
       sodipodi:ry="2.3991122"
       d="m 31.952684,24.910715 c 0,1.324993 -1.074119,2.399112 -2.399112,2.399112 -1.324993,0 -2.399113,-1.074119 -2.399113,-2.399112 0,-1.324993 1.07412,-2.399112 2.399113,-2.399112 1.324993,0 2.399112,1.074119 2.399112,2.399112 z"
       transform="matrix(0.79777592,0,0,0.79777592,-2.1485565,1024.1855)" />
  </g>
  <g
     inkscape:groupmode="layer"
     id="layer14"
     inkscape:label="Leaves"
     style="display:inline">
    <path
       style="fill:#94a072;fill-opacity:1;stroke:#000000;stroke-width:0.60000002;stroke-linecap:butt;stroke-linejoin:miter;stroke-miterlimit:4;stroke-opacity:1;stroke-dasharray:none"
       d="m 26.785714,11.25 c 0,0 1.785715,-0.535714 7.678572,-0.892857 5.892857,-0.3571434 6.428571,7.857143 4.821429,5.535715 -1.607143,-2.321429 -8.392858,-1.071429 -8.392858,-1.071429 0,0 3.392858,0.535714 6.25,3.571429 C 40,21.428572 36.607143,25.714286 35.892857,25 35.178572,24.285715 30.535714,17.678572 25.714286,14.464286 28.035714,16.607143 28.571429,22.321429 25.535714,25 22.5,27.678572 18.214286,29.821429 18.214286,29.821429 c 0,0 -1.607143,-3.214286 -0.714286,-5.714286 0.892857,-2.5 0.357143,-0.178571 0.357143,-0.178571 -6.608918,6.086704 -7.563564,7.29344 -8.3928573,4.642857 -0.8292933,-2.650584 -0.1275626,-4.971164 0.8928573,-7.142858 1.146117,-2.439208 5.535714,-5.892856 5.535714,-5.892856 0,0 -6.0714284,6.428571 -10.8928569,4.821428 0.5357142,-4.107143 4.4642857,-8.928571 9.2857139,-7.321428 0,0 -6.4285711,-1.071429 -6.2499997,-0.535715 C 8.2142858,13.035715 13.75,9.8214286 18.214286,9.9999996 l 2.857143,0.7142864 c 0,0 -0.178572,-3.9285714 3.035714,-6.7857146 3.214286,-2.8571429 3.75,-0.1785715 3.75,-0.1785715 0,0 -3.571429,4.8214287 -3.75,6.6071431 C 23.928572,12.142857 26.785714,11.25 26.785714,11.25 z"
       id="path9203"
       inkscape:connector-curvature="0"
       sodipodi:nodetypes="cscsczaccc" />
    <path
       sodipodi:type="arc"
       style="fill:#e6e6e6;fill-opacity:1;stroke:none;filter:url(#filter9221)"
       id="path9207"
       sodipodi:cx="13.125"
       sodipodi:cy="28.035715"
       sodipodi:rx="1.5178572"
       sodipodi:ry="3.9285715"
       d="m 14.642857,28.035715 a 1.5178572,3.9285715 0 1 1 -3.035714,0 1.5178572,3.9285715 0 1 1 3.035714,0 z"
       transform="matrix(0.89154291,0.45293624,-0.45293624,0.89154291,13.943319,-9.1541161)" />
    <path
       sodipodi:type="arc"
       style="fill:#e6e6e6;fill-opacity:1;stroke:none;display:inline;filter:url(#filter9221-9)"
       id="path9207-5"
       sodipodi:cx="13.125"
       sodipodi:cy="28.035715"
       sodipodi:rx="1.5178572"
       sodipodi:ry="3.9285715"
       d="m 14.642857,28.035715 a 1.5178572,3.9285715 0 1 1 -3.035714,0 1.5178572,3.9285715 0 1 1 3.035714,0 z"
       transform="matrix(0.31748254,0.56343705,-0.46748027,0.38265023,18.671328,-2.6765555)" />
    <path
       sodipodi:type="arc"
       style="fill:#e6e6e6;fill-opacity:1;stroke:none;display:inline;filter:url(#filter9221-5)"
       id="path9207-0"
       sodipodi:cx="13.125"
       sodipodi:cy="28.035715"
       sodipodi:rx="1.5178572"
       sodipodi:ry="3.9285715"
       d="m 14.642857,28.035715 a 1.5178572,3.9285715 0 1 1 -3.035714,0 1.5178572,3.9285715 0 1 1 3.035714,0 z"
       transform="matrix(0.60542501,0.4092154,-0.37280946,0.69208789,22.595063,-2.5419882)" />
    <path
       sodipodi:type="arc"
       style="fill:#e6e6e6;fill-opacity:1;stroke:none;display:inline;filter:url(#filter9221-5-5)"
       id="path9207-0-4"
       sodipodi:cx="13.125"
       sodipodi:cy="28.035715"
       sodipodi:rx="1.5178572"
       sodipodi:ry="3.9285715"
       d="m 14.642857,28.035715 a 1.5178572,3.9285715 0 1 1 -3.035714,0 1.5178572,3.9285715 0 1 1 3.035714,0 z"
       transform="matrix(0.58615128,-0.43637525,0.53019824,0.58039846,12.977992,8.3841106)" />
    <path
       sodipodi:type="arc"
       style="fill:#e6e6e6;fill-opacity:1;stroke:none;display:inline;filter:url(#filter9221-5-6)"
       id="path9207-0-49"
       sodipodi:cx="13.125"
       sodipodi:cy="28.035715"
       sodipodi:rx="1.5178572"
       sodipodi:ry="3.9285715"
       d="m 14.642857,28.035715 a 1.5178572,3.9285715 0 1 1 -3.035714,0 1.5178572,3.9285715 0 1 1 3.035714,0 z"
       transform="matrix(-0.08075071,0.72627544,-0.78606931,-0.00822113,57.383583,2.3052633)" />
  </g>
  <g
     inkscape:groupmode="layer"
     id="layer4"
     inkscape:label="Icons"
     style="display:inline">
    <g
       style="display:inline"
       id="g6807"
       transform="translate(27.860355,30.966329)">
      <g
         style="display:inline"
         inkscape:label="dimple"
         id="layer2">
        <path
           transform="matrix(0.273449,0,0,0.24188646,6.312303,3.274902)"
           d="m 22.857142,-0.95535719 c 0,3.52574649 -2.558372,6.38392879 -5.714285,6.38392879 -3.155913,0 -5.714286,-2.8581823 -5.714286,-6.38392879 0,-3.52574651 2.558373,-6.38392881 5.714286,-6.38392881 3.155913,0 5.714285,2.8581823 5.714285,6.38392881 z"
           sodipodi:ry="6.3839288"
           sodipodi:rx="5.7142859"
           sodipodi:cy="-0.95535719"
           sodipodi:cx="17.142857"
           id="path4088"
           style="fill:#d1c583;fill-opacity:1;stroke:#000000;stroke-width:1.55530667;stroke-miterlimit:4;stroke-opacity:1;stroke-dasharray:none"
           sodipodi:type="arc" />
      </g>
      <g
         style="display:inline"
         transform="translate(36.714287,-165.71933)"
         id="layer1-0"
         inkscape:label="pot">
        <path
           sodipodi:nodetypes="sssczcssscs"
           inkscape:connector-curvature="0"
           d="m -32.360131,182.99169 c -0.889916,-0.0352 -1.262691,-0.37881 -1.262691,-1.26269 0,-0.88389 5.02e-4,-4.66745 0,-6.43973 -3.21e-4,-1.13192 -1.38896,-2.27284 -1.38896,-2.27284 0,0 2.180186,-4.57695 9.364459,-4.57815 7.184274,-0.001 9.230531,4.5758 9.230531,4.5758 0,0 -1.388639,1.14092 -1.38896,2.27285 -5.02e-4,1.77227 0,5.55583 0,6.43972 0,0.88388 -0.372775,1.22747 -1.262691,1.26269 -0.892159,0.0353 -6.645844,-0.0358 -6.645844,-0.0358 0,0 -5.753685,0.0735 -6.645844,0.0382 z"
           style="fill:url(#linearGradient4075-9-3);fill-opacity:1;stroke:#000000;stroke-width:0.40000001;stroke-linecap:butt;stroke-linejoin:round;stroke-miterlimit:4;stroke-opacity:1;stroke-dasharray:none"
           id="path4052" />
        <path
           transform="translate(-36.714287,165.71933)"
           inkscape:connector-curvature="0"
           id="path4079"
           d="M 30.848214,7.8392857 z"
           style="fill:none;stroke:#000000;stroke-width:1px;stroke-linecap:butt;stroke-linejoin:miter;stroke-opacity:1" />
        <path
           sodipodi:nodetypes="cc"
           inkscape:connector-curvature="0"
           id="path4081"
           d="m -16.678572,173.00533 -18.169643,-0.0271"
           style="fill:none;stroke:#000000;stroke-width:0.40000001;stroke-linecap:butt;stroke-linejoin:miter;stroke-miterlimit:4;stroke-opacity:1;stroke-dasharray:none" />
      </g>
    </g>
    <text
       xml:space="preserve"
       style="font-size:13px;font-style:normal;font-weight:normal;line-height:125%;letter-spacing:0px;word-spacing:0px;fill:#000000;fill-opacity:1;stroke:none;display:inline;font-family:Sans"
       x="35.442028"
       y="47.707588"
       id="text6815"
       sodipodi:linespacing="125%"><tspan
         sodipodi:role="line"
         id="tspan6817"
         x="35.442028"
         y="47.707588">1</tspan></text>
  </g>
  <g
     inkscape:groupmode="layer"
     id="layer15"
     inkscape:label="Layer#2" />
</svg>
