<?xml version="1.0" encoding="UTF-8" standalone="no"?>
<!-- Created with Inkscape (http://www.inkscape.org/) -->

<svg
   xmlns:dc="http://purl.org/dc/elements/1.1/"
   xmlns:cc="http://creativecommons.org/ns#"
   xmlns:rdf="http://www.w3.org/1999/02/22-rdf-syntax-ns#"
   xmlns:svg="http://www.w3.org/2000/svg"
   xmlns="http://www.w3.org/2000/svg"
   xmlns:xlink="http://www.w3.org/1999/xlink"
   xmlns:sodipodi="http://sodipodi.sourceforge.net/DTD/sodipodi-0.dtd"
   xmlns:inkscape="http://www.inkscape.org/namespaces/inkscape"
   width="50"
   height="50"
   id="svg3067"
   version="1.1"
   inkscape:version="0.48.2 r9819"
   sodipodi:docname="Meat.svg">
  <defs
     id="defs3069">
    <linearGradient
       id="linearGradient8564">
      <stop
         style="stop-color:#4c3b27;stop-opacity:1;"
         offset="0"
         id="stop8566" />
      <stop
         id="stop8570"
         offset="1"
         style="stop-color:#4c3b27;stop-opacity:1;" />
    </linearGradient>
    <linearGradient
       id="linearGradient6996">
      <stop
         style="stop-color:#e3c390;stop-opacity:0.97647059;"
         offset="0"
         id="stop6998" />
      <stop
         style="stop-color:#633423;stop-opacity:0.97647059;"
         offset="1"
         id="stop7000" />
    </linearGradient>
    <linearGradient
       id="linearGradient6350">
      <stop
         id="stop6352"
         offset="0"
         style="stop-color:#dba079;stop-opacity:1;" />
      <stop
         id="stop6354"
         offset="1"
         style="stop-color:#74473a;stop-opacity:1;" />
    </linearGradient>
    <linearGradient
       id="linearGradient6326">
      <stop
         style="stop-color:#e6bda3;stop-opacity:1;"
         offset="0"
         id="stop6328" />
      <stop
         style="stop-color:#aa6756;stop-opacity:1;"
         offset="1"
         id="stop6330" />
    </linearGradient>
    <linearGradient
       id="linearGradient4069">
      <stop
         id="stop4071"
         offset="0"
         style="stop-color:#eeedd4;stop-opacity:1;" />
      <stop
         style="stop-color:#b59f36;stop-opacity:1;"
         offset="1"
         id="stop4077" />
    </linearGradient>
    <linearGradient
       id="linearGradient6794">
      <stop
         id="stop6796"
         offset="0"
         style="stop-color:#e6d944;stop-opacity:1;" />
      <stop
         id="stop6798"
         offset="1"
         style="stop-color:#ffffff;stop-opacity:1;" />
    </linearGradient>
    <linearGradient
       gradientUnits="userSpaceOnUse"
       y2="166.96429"
       x2="43.035713"
       y1="213.03571"
       x1="43.035713"
       id="linearGradient6800"
       xlink:href="#linearGradient6794"
       inkscape:collect="always" />
    <linearGradient
       inkscape:collect="always"
       xlink:href="#linearGradient6794-6"
       id="linearGradient4211-7"
       gradientUnits="userSpaceOnUse"
       x1="43.035713"
       y1="213.03571"
       x2="43.035713"
       y2="166.96429"
       gradientTransform="translate(-200.17857,-9.0663888)" />
    <linearGradient
       id="linearGradient6794-6">
      <stop
         id="stop6796-7"
         offset="0"
         style="stop-color:#e6d944;stop-opacity:1;" />
      <stop
         id="stop6798-8"
         offset="1"
         style="stop-color:#ffffff;stop-opacity:1;" />
    </linearGradient>
    <linearGradient
       y2="166.96429"
       x2="43.035713"
       y1="213.03571"
       x1="43.035713"
       gradientTransform="translate(-200.17857,-9.0663888)"
       gradientUnits="userSpaceOnUse"
       id="linearGradient6723"
       xlink:href="#linearGradient6794-6"
       inkscape:collect="always" />
    <linearGradient
       gradientTransform="translate(-28.947442,-0.59356385)"
       gradientUnits="userSpaceOnUse"
       y2="176.31338"
       x2="12.73065"
       y1="176.31338"
       x1="-6.2643404"
       id="linearGradient4075"
       xlink:href="#linearGradient4069-5"
       inkscape:collect="always" />
    <linearGradient
       id="linearGradient4069-5">
      <stop
         id="stop4071-8"
         offset="0"
         style="stop-color:#eeedd4;stop-opacity:1;" />
      <stop
         style="stop-color:#b59f36;stop-opacity:1;"
         offset="1"
         id="stop4077-9" />
    </linearGradient>
    <linearGradient
       inkscape:collect="always"
       xlink:href="#linearGradient6350"
       id="linearGradient8460"
       x1="2.8418586"
       y1="24.996986"
       x2="31.449493"
       y2="24.996986"
       gradientUnits="userSpaceOnUse" />
    <linearGradient
       inkscape:collect="always"
       xlink:href="#linearGradient6350-5"
       id="linearGradient8460-3"
       x1="2.8418586"
       y1="24.996986"
       x2="31.449493"
       y2="24.996986"
       gradientUnits="userSpaceOnUse" />
    <linearGradient
       id="linearGradient6350-5">
      <stop
         id="stop6352-5"
         offset="0"
         style="stop-color:#dba079;stop-opacity:1;" />
      <stop
         id="stop6354-1"
         offset="1"
         style="stop-color:#74473a;stop-opacity:1;" />
    </linearGradient>
    <linearGradient
       gradientTransform="translate(-0.35996185,1002.1866)"
       y2="24.996986"
       x2="31.449493"
       y1="24.996986"
       x1="2.8418586"
       gradientUnits="userSpaceOnUse"
       id="linearGradient8493"
       xlink:href="#linearGradient6350-5"
       inkscape:collect="always" />
    <linearGradient
       gradientTransform="translate(-0.35996185,1002.1866)"
       y2="24.996986"
       x2="31.449493"
       y1="24.996986"
       x1="2.8418586"
       gradientUnits="userSpaceOnUse"
       id="linearGradient8493-5"
       xlink:href="#linearGradient6350-5-5"
       inkscape:collect="always" />
    <linearGradient
       id="linearGradient6350-5-5">
      <stop
         id="stop6352-5-8"
         offset="0"
         style="stop-color:#dba079;stop-opacity:1;" />
      <stop
         id="stop6354-1-4"
         offset="1"
         style="stop-color:#74473a;stop-opacity:1;" />
    </linearGradient>
    <linearGradient
       y2="24.996986"
       x2="31.449493"
       y1="24.996986"
       x1="2.8418586"
       gradientTransform="matrix(0.99786412,0.29144495,-0.28454584,1.086396,14.928848,995.00561)"
       gradientUnits="userSpaceOnUse"
       id="linearGradient8527"
       xlink:href="#linearGradient6350-5-5"
       inkscape:collect="always" />
    <radialGradient
       inkscape:collect="always"
       xlink:href="#linearGradient8564"
       id="radialGradient8556"
       cx="22.142857"
       cy="23.928572"
       fx="22.142857"
       fy="23.928572"
       r="7.5"
       gradientTransform="matrix(1,0,0,0.85714283,0,3.418368)"
       gradientUnits="userSpaceOnUse" />
    <linearGradient
       id="linearGradient4069-5-0">
      <stop
         id="stop4071-8-4"
         offset="0"
         style="stop-color:#eeedd4;stop-opacity:1;" />
      <stop
         style="stop-color:#b59f36;stop-opacity:1;"
         offset="1"
         id="stop4077-9-9" />
    </linearGradient>
    <linearGradient
       gradientTransform="translate(-28.947442,-0.59356385)"
       gradientUnits="userSpaceOnUse"
       y2="176.31339"
       x2="12.73065"
       y1="176.31339"
       x1="-6.2643404"
       id="linearGradient4075-9-3"
       xlink:href="#linearGradient4069-5-0-1"
       inkscape:collect="always" />
    <linearGradient
       id="linearGradient4069-5-0-1">
      <stop
         id="stop4071-8-4-1"
         offset="0"
         style="stop-color:#eeedd4;stop-opacity:1;" />
      <stop
         style="stop-color:#b59f36;stop-opacity:1;"
         offset="1"
         id="stop4077-9-9-9" />
    </linearGradient>
  </defs>
  <sodipodi:namedview
     id="base"
     pagecolor="#ffffff"
     bordercolor="#666666"
     borderopacity="1.0"
     inkscape:pageopacity="0.0"
     inkscape:pageshadow="2"
     inkscape:zoom="2.8"
     inkscape:cx="19.463967"
     inkscape:cy="48.935634"
     inkscape:document-units="px"
     inkscape:current-layer="layer1"
     showgrid="false"
     inkscape:window-width="1680"
     inkscape:window-height="988"
     inkscape:window-x="2552"
     inkscape:window-y="1016"
     inkscape:window-maximized="1" />
  <metadata
     id="metadata3072">
    <rdf:RDF>
      <cc:Work
         rdf:about="">
        <dc:format>image/svg+xml</dc:format>
        <dc:type
           rdf:resource="http://purl.org/dc/dcmitype/StillImage" />
        <dc:title />
      </cc:Work>
    </rdf:RDF>
  </metadata>
  <g
     inkscape:groupmode="layer"
     id="layer5"
     inkscape:label="Background"
     style="display:inline">
    <rect
       style="fill:#517648;fill-opacity:1;stroke:none;opacity:1"
       id="rect5277"
       width="50"
       height="50"
       x="0"
       y="0" />
  </g>
  <g
     inkscape:label="Drawing"
     inkscape:groupmode="layer"
     id="layer1"
     transform="translate(0,-1002.3622)"
     style="display:inline">
    <path
       style="fill:#edc4c0;fill-opacity:1;stroke:#4e1f21;stroke-width:1px;stroke-linecap:butt;stroke-linejoin:miter;stroke-opacity:1"
       d="m 10.357143,17.5 c 0,0 7.857143,-9.6428572 11.607143,-11.6071429 3.75,-1.9642857 8.928571,-3.75 10.535714,-2.8571428 C 34.107143,3.9285714 38.75,6.25 39.107143,9.8214286 39.464286,13.392857 40.357143,18.928571 38.75,20.714286 37.142857,22.5 33.392857,26.785714 33.392857,26.785714"
       id="path11289"
       inkscape:connector-curvature="0"
       transform="translate(0,1002.3622)" />
    <path
       style="fill:#f2bfba;fill-opacity:1;stroke:#542829;stroke-width:1px;stroke-linecap:butt;stroke-linejoin:miter;stroke-opacity:1"
       d="m 10.357143,17.678571 c 1.071428,-1.785714 5.714286,-0.535714 7.678571,-2.321428 1.964286,-1.785714 6.785715,-4.642857 9.821429,-3.75 3.035714,0.892857 9.285714,8.035714 8.75,10 -0.535714,1.964286 -1.785714,5.178571 -3.392857,5.714286 -1.607143,0.535714 -20.178572,-1.428572 -20.178572,-1.428572 0,0 -3.3928569,-2.321428 -2.857143,-4.285714 0.535715,-1.964286 0.178572,-3.928572 0.178572,-3.928572 z"
       id="path11283"
       inkscape:connector-curvature="0"
       transform="translate(0,1002.3622)" />
    <path
       style="fill:#b0474e;fill-opacity:1;stroke:none"
       d="m 11.071428,1023.6122 c 0,0 0,-2.1429 1.964286,-2.5 1.964286,-0.3572 6.428572,-2.3215 8.571429,-3.7501 2.142857,-1.4285 4.999999,-3.5714 8.035713,0.1786 3.035715,3.75 7.321429,6.7857 6.25,7.5 -1.071428,0.7143 -1.42857,4.2857 -3.92857,3.9286 -2.5,-0.3572 -17.678572,-0.7143 -19.285715,-1.6071 -0.904254,-0.4912 -1.148706,-1.4727 -1.607143,-3.75 z"
       id="path11285"
       inkscape:connector-curvature="0"
       sodipodi:nodetypes="cccssccc" />
    <path
       style="fill:#fffafa;fill-opacity:0.92021275;stroke:none"
       d="m 13.571429,1024.1479 c 1.785714,-1.6071 3.392857,-2.3214 4.107143,-1.0714 0.714285,1.25 0.892857,2.8571 -0.892857,2.8571 -1.785715,0 -4.107143,-0.7143 -3.214286,-1.7857 z"
       id="path11287"
       inkscape:connector-curvature="0"
       sodipodi:nodetypes="cssc" />
    <path
       style="fill:#edc4c0;fill-opacity:1;stroke:#491e21;stroke-width:1px;stroke-linecap:butt;stroke-linejoin:miter;stroke-opacity:1"
       d="m 13.571429,26.071429 c 0,0 -6.9642861,2.678571 -7.1428576,6.785714 -0.1785714,4.107143 1.4285715,6.428571 4.6428576,7.321428 3.214285,0.892858 23.75,0.714286 25,-0.714285 1.25,-1.428572 3.214285,-7.857143 1.071428,-9.107143 -2.142857,-1.25 -3.571428,-3.928572 -4.821428,-3.928572 -1.25,0 -18.75,-0.357142 -18.75,-0.357142 z"
       id="path11291"
       inkscape:connector-curvature="0"
       transform="translate(0,1002.3622)" />
    <path
       style="fill:#b0474e;fill-opacity:1;stroke:none;display:inline"
       d="m 7.8624189,1035.4336 c 0,0 -0.7142858,3.0358 1.2499992,3.3929 1.7857149,2.3215 1.0741169,3.6035 7.8571429,2.6787 5.361146,0.3565 14.642857,1.4285 17.678571,-2.3215 3.035714,-3.75 1.25,-5.5357 0.178571,-6.25 -1.071428,-0.7143 -1.42857,-4.2857 -3.92857,-3.9286 -2.5,0.3572 -17.678572,0.7143 -19.285715,1.6071 -0.904253,0.4912 -3.2915621,2.5441 -3.7499991,4.8214 z"
       id="path11285-2"
       inkscape:connector-curvature="0"
       sodipodi:nodetypes="cccssccc" />
    <path
       style="fill:#fffafa;fill-opacity:0.92021275;stroke:none;display:inline"
       d="m 12.075526,1033.4725 c 1.785713,1.6071 3.392856,2.3214 4.107142,1.0714 0.714285,-1.25 0.892857,-2.8571 -0.892857,-2.8571 -1.785715,0 -4.107142,0.7143 -3.214285,1.7857 z"
       id="path11287-6"
       inkscape:connector-curvature="0"
       sodipodi:nodetypes="cssc" />
    <path
       style="opacity:0.40265485;fill:none;stroke:#b0474e;stroke-width:2;stroke-linecap:round;stroke-linejoin:miter;stroke-miterlimit:4;stroke-opacity:1;stroke-dasharray:none"
       d="M 21.25,11.428571 26.607143,7.3214285"
       id="path11329"
       inkscape:connector-curvature="0"
       transform="translate(0,1002.3622)"
       sodipodi:nodetypes="cc" />
  </g>
  <g
     inkscape:groupmode="layer"
     id="layer4"
     inkscape:label="Food"
     style="display:inline">
    <g
       style="display:inline"
       id="g6807"
       transform="translate(27.860355,26.966329)">
      <g
         style="display:inline"
         inkscape:label="dimple"
         id="layer2">
        <path
           transform="matrix(0.273449,0,0,0.24188646,6.312303,3.274902)"
           d="m 22.857142,-0.95535719 c 0,3.52574649 -2.558372,6.38392879 -5.714285,6.38392879 -3.155913,0 -5.714286,-2.8581823 -5.714286,-6.38392879 0,-3.52574651 2.558373,-6.38392881 5.714286,-6.38392881 3.155913,0 5.714285,2.8581823 5.714285,6.38392881 z"
           sodipodi:ry="6.3839288"
           sodipodi:rx="5.7142859"
           sodipodi:cy="-0.95535719"
           sodipodi:cx="17.142857"
           id="path4088"
           style="fill:#d1c583;fill-opacity:1;stroke:#000000;stroke-width:1.55530667;stroke-miterlimit:4;stroke-opacity:1;stroke-dasharray:none"
           sodipodi:type="arc" />
      </g>
      <g
         style="display:inline"
         transform="translate(36.714287,-165.71933)"
         id="layer1-0"
         inkscape:label="pot">
        <path
           sodipodi:nodetypes="sssczcssscs"
           inkscape:connector-curvature="0"
           d="m -32.360131,182.99169 c -0.889916,-0.0352 -1.262691,-0.37881 -1.262691,-1.26269 0,-0.88389 5.02e-4,-4.66745 0,-6.43973 -3.21e-4,-1.13192 -1.38896,-2.27284 -1.38896,-2.27284 0,0 2.180186,-4.57695 9.364459,-4.57815 7.184274,-0.001 9.230531,4.5758 9.230531,4.5758 0,0 -1.388639,1.14092 -1.38896,2.27285 -5.02e-4,1.77227 0,5.55583 0,6.43972 0,0.88388 -0.372775,1.22747 -1.262691,1.26269 -0.892159,0.0353 -6.645844,-0.0358 -6.645844,-0.0358 0,0 -5.753685,0.0735 -6.645844,0.0382 z"
           style="fill:url(#linearGradient4075-9-3);fill-opacity:1;stroke:#000000;stroke-width:0.40000001;stroke-linecap:butt;stroke-linejoin:round;stroke-miterlimit:4;stroke-opacity:1;stroke-dasharray:none"
           id="path4052" />
        <path
           transform="translate(-36.714287,165.71933)"
           inkscape:connector-curvature="0"
           id="path4079"
           d="M 30.848214,7.8392857 z"
           style="fill:none;stroke:#000000;stroke-width:1px;stroke-linecap:butt;stroke-linejoin:miter;stroke-opacity:1" />
        <path
           sodipodi:nodetypes="cc"
           inkscape:connector-curvature="0"
           id="path4081"
           d="m -16.678572,173.00533 -18.169643,-0.0271"
           style="fill:none;stroke:#000000;stroke-width:0.40000001;stroke-linecap:butt;stroke-linejoin:miter;stroke-miterlimit:4;stroke-opacity:1;stroke-dasharray:none" />
      </g>
    </g>
    <text
       xml:space="preserve"
       style="font-size:13px;font-style:normal;font-weight:normal;line-height:125%;letter-spacing:0px;word-spacing:0px;fill:#000000;fill-opacity:1;stroke:none;display:inline;font-family:Sans"
       x="35.442028"
       y="43.300011"
       id="text6815"
       sodipodi:linespacing="125%"><tspan
         sodipodi:role="line"
         id="tspan6817"
         x="35.442028"
         y="43.300011"
         style="font-size:12px">1</tspan></text>
  </g>
  <g
     inkscape:groupmode="layer"
     id="layer11"
     inkscape:label="Coins"
     style="display:none">
    <path
       sodipodi:type="arc"
       style="fill:#d3cdb0;fill-opacity:0.97647059;stroke:#000000;stroke-width:0.5;stroke-miterlimit:4;stroke-opacity:1;stroke-dasharray:none"
       id="path6822"
       sodipodi:cx="40.532372"
       sodipodi:cy="8.4574766"
       sodipodi:rx="6.9447989"
       sodipodi:ry="7.1973367"
       d="m 47.47717,8.4574766 a 6.9447989,7.1973367 0 1 1 -13.889597,0 6.9447989,7.1973367 0 1 1 13.889597,0 z"
       transform="matrix(1.0357598,0,0,0.99941739,-0.67134623,0.51002708)" />
    <text
       xml:space="preserve"
       style="font-size:13px;font-style:normal;font-weight:normal;line-height:125%;letter-spacing:0px;word-spacing:0px;fill:#000000;fill-opacity:1;stroke:none;font-family:Sans"
       x="37.880722"
       y="13.38197"
       id="text6824"
       sodipodi:linespacing="125%"><tspan
         sodipodi:role="line"
         id="tspan6826"
         x="37.880722"
         y="13.38197">5</tspan></text>
  </g>
  <g
     inkscape:groupmode="layer"
     id="layer10"
     inkscape:label="Points"
     style="display:none">
    <g
       style="display:inline"
       transform="matrix(0.31508102,0,0,0.33604188,58.604102,-20.650258)"
       id="layer1-7-7"
       inkscape:label="Layer 1">
      <path
         inkscape:connector-curvature="0"
         id="path6747-8"
         d="m -177.14286,157.8979 c 0,46.07142 20,46.07142 20,46.07142 0,0 20,1e-5 20,-46.07142 z"
         style="fill:url(#linearGradient6723);fill-opacity:1;stroke:#000000;stroke-width:2;stroke-linecap:butt;stroke-linejoin:miter;stroke-miterlimit:4;stroke-opacity:1;stroke-dasharray:none" />
    </g>
    <text
       xml:space="preserve"
       style="font-size:18px;font-style:normal;font-weight:normal;line-height:125%;letter-spacing:0px;word-spacing:0px;fill:#000000;fill-opacity:1;stroke:none;display:inline;font-family:Sans"
       x="5.1429248"
       y="38.106262"
       id="text6081-1"
       sodipodi:linespacing="125%"><tspan
         y="38.106262"
         x="5.1429248"
         sodipodi:role="line"
         id="tspan6083-6" /></text>
    <text
       xml:space="preserve"
       style="font-size:13px;font-style:normal;font-weight:normal;line-height:125%;letter-spacing:0px;word-spacing:0px;fill:#000000;fill-opacity:1;stroke:none;display:inline;font-family:Sans"
       x="5.8572192"
       y="44.356258"
       id="text6085-0"
       sodipodi:linespacing="125%"><tspan
         sodipodi:role="line"
         x="5.8572192"
         y="44.356258"
         id="tspan6408-9">2</tspan></text>
  </g>
</svg>
