<?xml version="1.0" encoding="UTF-8" standalone="no"?>
<!-- Created with Inkscape (http://www.inkscape.org/) -->

<svg
   xmlns:dc="http://purl.org/dc/elements/1.1/"
   xmlns:cc="http://creativecommons.org/ns#"
   xmlns:rdf="http://www.w3.org/1999/02/22-rdf-syntax-ns#"
   xmlns:svg="http://www.w3.org/2000/svg"
   xmlns="http://www.w3.org/2000/svg"
   xmlns:xlink="http://www.w3.org/1999/xlink"
   xmlns:sodipodi="http://sodipodi.sourceforge.net/DTD/sodipodi-0.dtd"
   xmlns:inkscape="http://www.inkscape.org/namespaces/inkscape"
   width="50"
   height="50"
   id="svg3067"
   version="1.1"
   inkscape:version="0.48.2 r9819"
   sodipodi:docname="Reliquary.svg">
  <defs
     id="defs3069">
    <linearGradient
       id="linearGradient6350">
      <stop
         id="stop6352"
         offset="0"
         style="stop-color:#dba079;stop-opacity:1;" />
      <stop
         id="stop6354"
         offset="1"
         style="stop-color:#74473a;stop-opacity:1;" />
    </linearGradient>
    <linearGradient
       id="linearGradient6326">
      <stop
         style="stop-color:#e6bda3;stop-opacity:1;"
         offset="0"
         id="stop6328" />
      <stop
         style="stop-color:#aa6756;stop-opacity:1;"
         offset="1"
         id="stop6330" />
    </linearGradient>
    <linearGradient
       id="linearGradient4069">
      <stop
         id="stop4071"
         offset="0"
         style="stop-color:#eeedd4;stop-opacity:1;" />
      <stop
         style="stop-color:#b59f36;stop-opacity:1;"
         offset="1"
         id="stop4077" />
    </linearGradient>
    <linearGradient
       inkscape:collect="always"
       xlink:href="#linearGradient6794"
       id="linearGradient4211"
       gradientUnits="userSpaceOnUse"
       x1="43.035713"
       y1="213.03571"
       x2="43.035713"
       y2="166.96429"
       gradientTransform="translate(-200.17857,-9.0663888)" />
    <linearGradient
       id="linearGradient6794">
      <stop
         id="stop6796"
         offset="0"
         style="stop-color:#e6d944;stop-opacity:1;" />
      <stop
         id="stop6798"
         offset="1"
         style="stop-color:#ffffff;stop-opacity:1;" />
    </linearGradient>
    <linearGradient
       gradientUnits="userSpaceOnUse"
       y2="166.96429"
       x2="43.035713"
       y1="213.03571"
       x1="43.035713"
       id="linearGradient6800"
       xlink:href="#linearGradient6794"
       inkscape:collect="always" />
    <linearGradient
       inkscape:collect="always"
       xlink:href="#linearGradient6326"
       id="linearGradient6340"
       x1="7.1785712"
       y1="24.26243"
       x2="28.892857"
       y2="24.26243"
       gradientUnits="userSpaceOnUse" />
    <linearGradient
       inkscape:collect="always"
       xlink:href="#linearGradient6350"
       id="linearGradient6348"
       x1="7.5357141"
       y1="9.8214283"
       x2="28.714287"
       y2="9.8214283"
       gradientUnits="userSpaceOnUse" />
    <linearGradient
       inkscape:collect="always"
       xlink:href="#linearGradient6326"
       id="linearGradient6365"
       x1="23.604004"
       y1="27.053572"
       x2="43.170166"
       y2="27.053572"
       gradientUnits="userSpaceOnUse" />
    <linearGradient
       inkscape:collect="always"
       xlink:href="#linearGradient6326"
       id="linearGradient6375"
       x1="35.524204"
       y1="18.405575"
       x2="44.013062"
       y2="18.405575"
       gradientUnits="userSpaceOnUse" />
    <linearGradient
       inkscape:collect="always"
       xlink:href="#linearGradient6326"
       id="linearGradient6387"
       x1="18.607143"
       y1="33.92857"
       x2="27.285713"
       y2="33.92857"
       gradientUnits="userSpaceOnUse" />
    <linearGradient
       inkscape:collect="always"
       xlink:href="#linearGradient6350"
       id="linearGradient6395"
       x1="16.387798"
       y1="39.493931"
       x2="28.892857"
       y2="39.493931"
       gradientUnits="userSpaceOnUse" />
    <linearGradient
       inkscape:collect="always"
       xlink:href="#linearGradient6794"
       id="linearGradient6438"
       x1="19.321428"
       y1="32.142857"
       x2="45.857143"
       y2="32.142857"
       gradientUnits="userSpaceOnUse" />
    <linearGradient
       inkscape:collect="always"
       xlink:href="#linearGradient6794"
       id="linearGradient6446"
       x1="28.607143"
       y1="35.625"
       x2="36.392857"
       y2="35.625"
       gradientUnits="userSpaceOnUse" />
    <linearGradient
       inkscape:collect="always"
       xlink:href="#linearGradient6794"
       id="linearGradient6454"
       x1="20.915665"
       y1="42.304688"
       x2="43.917339"
       y2="42.304688"
       gradientUnits="userSpaceOnUse"
       gradientTransform="translate(0,1002.3622)" />
    <linearGradient
       inkscape:collect="always"
       xlink:href="#linearGradient6794"
       id="linearGradient6462"
       x1="16.464287"
       y1="19.553572"
       x2="50.5"
       y2="19.553572"
       gradientUnits="userSpaceOnUse" />
    <linearGradient
       inkscape:collect="always"
       xlink:href="#linearGradient6794"
       id="linearGradient6472"
       x1="30.214287"
       y1="6.3392859"
       x2="35.678574"
       y2="6.3392859"
       gradientUnits="userSpaceOnUse" />
  </defs>
  <sodipodi:namedview
     id="base"
     pagecolor="#ffffff"
     bordercolor="#666666"
     borderopacity="1.0"
     inkscape:pageopacity="0.0"
     inkscape:pageshadow="2"
     inkscape:zoom="3.959798"
     inkscape:cx="7.1504165"
     inkscape:cy="-27.303621"
     inkscape:document-units="px"
     inkscape:current-layer="layer1"
     showgrid="false"
     inkscape:window-width="1680"
     inkscape:window-height="988"
     inkscape:window-x="2552"
     inkscape:window-y="1016"
     inkscape:window-maximized="1">
    <sodipodi:guide
       position="0,0"
       orientation="0,50"
       id="guide3088" />
    <sodipodi:guide
       position="50,0"
       orientation="-50,0"
       id="guide3090" />
    <sodipodi:guide
       position="50,50"
       orientation="0,-50"
       id="guide3092" />
    <sodipodi:guide
       position="0,50"
       orientation="50,0"
       id="guide3094" />
  </sodipodi:namedview>
  <metadata
     id="metadata3072">
    <rdf:RDF>
      <cc:Work
         rdf:about="">
        <dc:format>image/svg+xml</dc:format>
        <dc:type
           rdf:resource="http://purl.org/dc/dcmitype/StillImage" />
        <dc:title />
      </cc:Work>
    </rdf:RDF>
  </metadata>
  <g
     inkscape:groupmode="layer"
     id="layer5"
     inkscape:label="Background"
     style="display:inline">
    <rect
       style="fill:#a43339;fill-opacity:1;stroke:none"
       id="rect5277"
       width="50"
       height="50"
       x="0"
       y="0" />
  </g>
  <g
     inkscape:label="Drawing"
     inkscape:groupmode="layer"
     id="layer1"
     transform="translate(0,-1002.3622)"
     style="display:inline;opacity:0.84955752">
    <path
       style="fill:url(#linearGradient6438);stroke:#000000;stroke-width:1px;stroke-linecap:butt;stroke-linejoin:miter;stroke-opacity:1;fill-opacity:1"
       d="m 44.107143,30.357143 1.25,1.964286 -1.071429,1.25 -23.392857,0.357142 -1.071428,-1.607142 1.785714,-1.964286"
       id="path6414"
       inkscape:connector-curvature="0"
       transform="translate(0,1002.3622)" />
    <path
       sodipodi:type="arc"
       style="fill:url(#linearGradient6472);fill-opacity:1.0;stroke:#000000;stroke-width:1;stroke-linecap:round;stroke-linejoin:round;stroke-miterlimit:4;stroke-opacity:1;stroke-dasharray:none"
       id="path6464"
       sodipodi:cx="32.94643"
       sodipodi:cy="6.3392859"
       sodipodi:rx="2.2321429"
       sodipodi:ry="2.5892856"
       d="m 35.178573,6.3392859 c 0,1.4300229 -0.999364,2.5892856 -2.232143,2.5892856 -1.232778,0 -2.232143,-1.1592627 -2.232143,-2.5892856 0,-1.430023 0.999365,-2.5892857 2.232143,-2.5892857 1.232779,0 2.232143,1.1592627 2.232143,2.5892857 z"
       transform="translate(0,1002.3622)" />
    <path
       style="fill:url(#linearGradient6462);fill-opacity:1;stroke:#000000;stroke-width:1px;stroke-linecap:butt;stroke-linejoin:miter;stroke-opacity:1"
       d="m 16.964286,15.714286 15.892857,-7.3214289 15.357143,6.9642859 -4.107143,15.178571 -22.5,0.178572 z"
       id="path6412"
       inkscape:connector-curvature="0"
       transform="translate(0,1002.3622)"
       sodipodi:nodetypes="cccccc" />
    <path
       style="fill:url(#linearGradient6446);stroke:#000000;stroke-width:1px;stroke-linecap:butt;stroke-linejoin:miter;stroke-opacity:1;fill-opacity:1"
       d="m 29.107143,34.285714 1.071428,2.678572 4.464286,0 1.25,-2.5"
       id="path6416"
       inkscape:connector-curvature="0"
       transform="translate(0,1002.3622)" />
    <path
       style="fill:none;stroke:#000000;stroke-width:1px;stroke-linecap:butt;stroke-linejoin:miter;stroke-opacity:1"
       d="m 31.071429,36.964286 -0.178572,2.142857"
       id="path6418"
       inkscape:connector-curvature="0"
       transform="translate(0,1002.3622)" />
    <path
       style="fill:none;stroke:#000000;stroke-width:1px;stroke-linecap:butt;stroke-linejoin:miter;stroke-opacity:1"
       d="m 33.571429,37.5 0,1.428571"
       id="path6420"
       inkscape:connector-curvature="0"
       transform="translate(0,1002.3622)" />
    <path
       style="fill:url(#linearGradient6454);fill-opacity:1;stroke:#000000;stroke-width:1px;stroke-linecap:butt;stroke-linejoin:miter;stroke-opacity:1"
       d="m 32.321428,1040.9336 c -2.053571,0 -10.535714,3.2143 -10.892857,5.3572 -0.357143,2.1428 6.785715,2.3214 10.535715,1.9643 3.75,-0.3572 11.958498,0.3029 11.428571,-1.9643 -0.49164,-2.1034 -9.017857,-5.3572 -11.071429,-5.3572 z"
       id="path6422"
       inkscape:connector-curvature="0"
       sodipodi:nodetypes="zzssz" />
    <path
       style="fill:#a3dbe6;stroke:#000000;stroke-width:1px;stroke-linecap:butt;stroke-linejoin:miter;stroke-opacity:1;fill-opacity:1"
       d="m 19.642857,16.428571 11.428572,-1.25 0.357142,14.285715 -8.214285,-0.178572 z"
       id="path6474"
       inkscape:connector-curvature="0"
       transform="translate(0,1002.3622)" />
    <path
       style="fill:#a3dbe6;stroke:#000000;stroke-width:1px;stroke-linecap:butt;stroke-linejoin:miter;stroke-opacity:1;fill-opacity:1"
       d="m 32.857143,15.357143 0.357143,13.571428 9.285714,0 3.571429,-12.5 z"
       id="path6476"
       inkscape:connector-curvature="0"
       transform="translate(0,1002.3622)" />
    <path
       sodipodi:type="spiral"
       style="fill:none;stroke:#000000;stroke-width:1px;stroke-linecap:butt;stroke-linejoin:miter;stroke-opacity:1"
       id="path6482"
       sodipodi:cx="24.464285"
       sodipodi:cy="23.928572"
       sodipodi:expansion="2"
       sodipodi:revolution="2.0148911"
       sodipodi:radius="3.2192423"
       sodipodi:argument="-12.071932"
       sodipodi:t0="0"
       d="m 24.464285,23.928572 c 0.01937,0.01044 -0.01631,0.04049 -0.02352,0.04362 -0.08262,0.03597 -0.146104,-0.07054 -0.15098,-0.137696 -0.01469,-0.202359 0.212314,-0.314774 0.38616,-0.298548 0.367136,0.03427 0.548224,0.44047 0.486328,0.768908 -0.108986,0.578316 -0.755185,0.847073 -1.285941,0.714321 -0.836521,-0.209229 -1.211545,-1.156527 -0.982527,-1.937259 0.334993,-1.142 1.644536,-1.641738 2.722862,-1.290945 1.494867,0.486299 2.137698,2.219236 1.639576,3.64275 -0.03333,0.09524 -0.0712,0.188894 -0.113389,0.280559"
       transform="translate(0,1002.3622)" />
    <path
       sodipodi:type="spiral"
       style="fill:none;stroke:#000000;stroke-width:1px;stroke-linecap:butt;stroke-linejoin:miter;stroke-opacity:1"
       id="path6484"
       sodipodi:cx="29.821428"
       sodipodi:cy="26.964285"
       sodipodi:expansion="2"
       sodipodi:revolution="2.0148911"
       sodipodi:radius="3.2192423"
       sodipodi:argument="-15.213525"
       sodipodi:t0="0"
       d="m 29.821428,26.964285 c -0.01937,-0.01044 0.01631,-0.04049 0.02352,-0.04362 0.08262,-0.03597 0.146105,0.07054 0.15098,0.137696 0.01469,0.202359 -0.212314,0.314773 -0.38616,0.298547 -0.367135,-0.03427 -0.548223,-0.440469 -0.486328,-0.768908 0.108986,-0.578316 0.755185,-0.847073 1.285941,-0.714321 0.836521,0.209229 1.211546,1.156527 0.982527,1.937259 -0.334992,1.142 -1.644535,1.641738 -2.722861,1.290946 -1.494868,-0.486299 -2.137699,-2.219235 -1.639577,-3.642749 0.03333,-0.09524 0.0712,-0.188895 0.113388,-0.28056"
       transform="translate(0,1002.3622)" />
    <path
       sodipodi:type="spiral"
       style="fill:none;stroke:#000000;stroke-width:1px;stroke-linecap:butt;stroke-linejoin:miter;stroke-opacity:1"
       id="path6490"
       sodipodi:cx="40.535713"
       sodipodi:cy="23.214285"
       sodipodi:expansion="2"
       sodipodi:revolution="2.0148911"
       sodipodi:radius="3.3216207"
       sodipodi:argument="-10.151091"
       sodipodi:t0="0"
       d="m 40.535713,23.214285 c -0.01697,0.01508 -0.03347,-0.03013 -0.03396,-0.03823 -0.0056,-0.0928 0.120072,-0.116647 0.186883,-0.09761 0.201331,0.05736 0.229962,0.317162 0.15272,0.479917 -0.163122,0.343714 -0.620903,0.375497 -0.917335,0.199289 -0.521957,-0.310268 -0.553789,-1.031682 -0.237316,-1.499133 0.498791,-0.736747 1.549643,-0.765034 2.225315,-0.266804 0.988325,0.728778 1.00931,2.174857 0.287749,3.095878 -1.000289,1.276796 -2.907368,1.286655 -4.110823,0.300154 -0.08052,-0.066 -0.157887,-0.135851 -0.231804,-0.209174"
       transform="translate(0,1002.3622)" />
    <path
       sodipodi:type="spiral"
       style="fill:none;stroke:#000000;stroke-width:1px;stroke-linecap:butt;stroke-linejoin:miter;stroke-opacity:1"
       id="path6492"
       sodipodi:cx="35.535713"
       sodipodi:cy="26.25"
       sodipodi:expansion="2"
       sodipodi:revolution="2.0148911"
       sodipodi:radius="2.8849096"
       sodipodi:argument="-13.040441"
       sodipodi:t0="0"
       d="m 35.535713,26.25 c 0.01754,-0.009 0.02162,0.0326 0.02027,0.03952 -0.01539,0.07927 -0.12627,0.07208 -0.178335,0.04158 -0.156892,-0.09189 -0.124657,-0.316593 -0.02442,-0.436734 0.211697,-0.253719 0.603599,-0.181219 0.814714,0.03123 0.371733,0.374089 0.242129,0.987728 -0.125364,1.312273 -0.579203,0.511514 -1.469143,0.307519 -1.929412,-0.257974 -0.67325,-0.827164 -0.377442,-2.047923 0.429063,-2.666131 1.118046,-0.857011 2.724113,-0.451918 3.52243,0.638633 0.05341,0.07297 0.103342,0.148481 0.149616,0.226171"
       transform="translate(0,1002.3622)" />
    <path
       style="fill:#f2f2f2;fill-opacity:1;stroke:none"
       id="path6500"
       d="m 29.49759,16.56733 c -0.387081,0.287263 -0.780199,0.566476 -1.168533,0.852152 -0.269415,0.156904 -0.513506,0.33674 -0.723279,0.567648 -0.179879,0.180592 -0.407298,0.298875 -0.568242,0.498284 -0.191297,0.218275 -0.430501,0.387627 -0.659985,0.563429 -0.946295,0.712791 -2.009221,1.222765 -3.043811,1.811385 3.78743,-2.334466 2.427768,-1.479015 1.647551,-0.84397 -0.136222,0.09674 -0.264954,0.205121 -0.385041,0.321258 0,0 -2.459451,0.995614 -2.459451,0.995614 l 0,0 c 0.137048,-0.101667 0.251828,-0.226937 0.376924,-0.342406 1.001213,-0.618987 1.208335,-1.716765 2.891787,-1.782415 -4.022271,2.33163 -2.279933,1.4162 -1.489156,0.80773 0.240316,-0.147389 0.448794,-0.338516 0.676434,-0.499028 0.220001,-0.230829 -0.05166,0.06815 0.154797,-0.209582 0.09941,-0.133722 0.271968,-0.217892 0.407179,-0.307222 0.238607,-0.2094 0.406103,-0.500229 0.721727,-0.614033 0.396747,-0.266769 0.788282,-0.547647 1.155311,-0.854051 0,0 2.465788,-0.964793 2.465788,-0.964793 z"
       inkscape:connector-curvature="0"
       transform="translate(0,1002.3622)" />
    <path
       style="fill:#f2f2f2;fill-opacity:1;stroke:none"
       id="path6502"
       d="m 30.052032,19.056013 c -0.350681,0.280154 -0.637053,0.629573 -0.930032,0.967146 -0.193149,0.228918 -0.405757,0.43992 -0.606515,0.661668 -0.176139,0.180917 -0.361974,0.352546 -0.53365,0.537763 -0.194195,0.161506 -0.345008,0.355992 -0.495911,0.55563 -0.165815,0.199214 -0.27726,0.438794 -0.459992,0.622925 -0.181375,0.179645 -0.307143,0.39989 -0.444326,0.612097 -0.126408,0.226576 -0.315332,0.406432 -0.452207,0.625398 -0.647143,0.968898 -1.054996,0.647808 -2.611868,1.711518 -0.855724,0.584661 3.016363,-1.76282 2.055673,-1.180656 0,0 -2.457817,0.999587 -2.457817,0.999587 l 0,0 c 0.02901,-0.03487 0.04815,-0.08124 0.08702,-0.10462 0.785718,-0.472541 1.555,-0.978872 2.379932,-1.37904 0.747563,-0.362636 -1.432125,0.842883 -2.147132,1.26611 -0.03488,0.02065 0.07414,-0.03418 0.106694,-0.05833 0.08943,-0.06636 0.09768,-0.104713 0.152787,-0.200614 0.163338,-0.19347 0.268544,-0.431118 0.462849,-0.602416 0.125139,-0.233676 0.26688,-0.451977 0.419975,-0.666532 0.304536,-0.339113 -0.129888,0.129352 0.18416,-0.162206 0.128054,-0.118884 0.136756,-0.322197 0.294212,-0.418971 0.131885,-0.227045 0.283982,-0.431476 0.470138,-0.61487 0.199345,-0.153868 0.359232,-0.357242 0.535985,-0.534981 0.234285,-0.186499 0.420624,-0.433286 0.625057,-0.651308 0.318792,-0.316262 0.582834,-0.683162 0.904441,-0.99787 0,0 2.460524,-0.987427 2.460524,-0.987427 z"
       inkscape:connector-curvature="0"
       transform="translate(0,1002.3622)" />
    <path
       style="fill:#f2f2f2;fill-opacity:1;stroke:none"
       id="path6504"
       d="m 30.409175,23.341727 c -0.336094,0.26072 -0.719472,0.451288 -1.051082,0.717993 -0.222655,0.211122 -0.450232,0.418078 -0.684139,0.616876 -0.205992,0.178743 -0.396611,0.373972 -0.599209,0.556183 -0.15668,0.204049 -0.3202,0.394383 -0.519787,0.558928 -0.164843,0.193949 -0.333078,0.378183 -0.533335,0.537796 -0.160005,0.142483 -0.308056,0.297103 -0.489594,0.412282 0,0 -2.465907,0.978848 -2.465907,0.978848 l 0,0 c 0.100216,-0.08547 0.219764,-0.12038 0.314844,-0.210118 0.0319,-0.03011 0.05269,-0.0708 0.08496,-0.100519 0.03047,-0.02806 0.0678,-0.04761 0.101696,-0.07142 0.170465,-0.190444 0.422243,-0.2957 0.534442,-0.535037 0.169704,-0.192053 0.421584,-0.302228 0.524922,-0.548411 0.172518,-0.213556 0.39413,-0.388186 0.597783,-0.57068 0.21149,-0.225442 0.461997,-0.410268 0.69079,-0.616784 0.281925,-0.326338 0.675499,-0.507435 1.033089,-0.738512 0,0 2.460524,-0.987428 2.460524,-0.987428 z"
       inkscape:connector-curvature="0"
       transform="translate(0,1002.3622)" />
    <path
       style="fill:#f2f2f2;fill-opacity:1;stroke:none"
       id="path6506"
       d="m 39.69489,17.44887 c -0.320412,0.268329 -0.625501,0.555225 -0.924472,0.847185 -0.887376,0.758581 -1.965196,1.263291 -2.963835,1.846989 0.719361,-0.41517 1.436967,-0.833397 2.158083,-1.245511 0.03805,-0.02175 -0.07052,0.05242 -0.108543,0.07421 -0.796754,0.456725 -1.590448,0.919058 -2.395418,1.36114 -0.04251,0.02334 -0.09647,0.01521 -0.141851,0.0323 -0.08361,0.03148 -0.158881,0.08229 -0.241605,0.116031 3.843082,-2.281919 2.39875,-1.488788 1.623916,-0.818757 -0.138853,0.135379 -0.06925,0.07049 -0.208485,0.195017 0,0 -2.447026,1.017862 -2.447026,1.017862 l 0,0 c 0.125853,-0.148095 0.05647,-0.08161 0.207671,-0.199953 0.761467,-0.861714 1.950144,-1.27663 2.904645,-1.837703 2.419039,-1.072585 -7.041715,3.928194 0.709966,-0.362766 -3.864798,2.263794 -2.367529,1.447969 -1.543573,0.820394 0.318613,-0.268139 0.606204,-0.57486 0.910002,-0.859017 0,0 2.460525,-0.987428 2.460525,-0.987428 z"
       inkscape:connector-curvature="0"
       transform="translate(0,1002.3622)" />
    <path
       style="fill:#f2f2f2;fill-opacity:1;stroke:none"
       id="path6508"
       d="m 41.337155,19.64173 c 0.695727,-0.39809 1.39037,-0.798079 2.087181,-1.194269 0.06876,-0.0391 -0.135312,0.08196 -0.202961,0.122946 -0.07114,0.0431 -0.141482,0.08754 -0.213395,0.129333 -0.819079,0.476038 -1.635986,0.955889 -2.459539,1.424142 -0.278407,0.124964 -0.14764,0.05566 -0.393786,0.205082 -0.876363,0.451006 -0.467279,0.243746 1.948362,-1.127136 0.04525,-0.02568 -0.0866,0.05768 -0.130101,0.08622 -0.139176,0.0913 -0.277492,0.182649 -0.419827,0.268967 -0.982621,0.694106 -1.98076,1.431892 -3.127039,1.823519 -0.123877,0.106067 -0.287912,0.129407 -0.42948,0.195771 -0.04293,0.02013 -0.160959,0.100219 -0.119765,0.07674 2.161013,-1.23155 2.808075,-1.761823 2.058256,-1.15749 -0.18427,0.176871 -0.374273,0.342441 -0.584192,0.489411 -0.823704,0.669203 -2.034325,1.241913 -2.815895,1.667092 -0.729489,0.396847 1.441853,-0.824393 2.16278,-1.236589 -6.285342,3.619654 -0.296936,0.169261 -0.222643,0.12705 0.03755,-0.02134 -0.06932,0.05155 -0.10463,0.07643 -0.105758,0.07452 -0.20144,0.156489 -0.302928,0.236882 -0.843259,0.55725 -1.650283,0.971937 -2.6054,1.509156 -0.723884,0.40716 1.44107,-0.826114 2.16221,-1.238112 0.071,-0.04056 -0.135935,0.09197 -0.196282,0.147151 -0.198133,0.157706 -0.395581,0.316687 -0.595024,0.473183 0,0 -2.452949,1.011605 -2.452949,1.011605 l 0,0 c 0.163679,-0.192559 0.37883,-0.350179 0.590622,-0.484036 0.962855,-0.828842 -1.247428,0.467406 2.56357,-1.564761 0.732053,-0.390358 -1.435206,0.832649 -2.152345,1.249772 -0.07429,0.04321 0.308549,-0.165662 0.211355,-0.147646 0.168708,-0.07478 0.261017,-0.201025 0.415312,-0.29229 2.617489,-1.548231 3.584122,-2.099297 0.214086,-0.150261 7.638517,-4.385078 -1.865394,1.096837 0.669691,-0.386534 0.179133,-0.188837 0.43414,-0.2784 0.582022,-0.497285 0.901365,-0.744312 1.96672,-1.266025 3.027714,-1.742759 0.874514,-0.437492 0.27122,-0.139596 -1.960171,1.149699 -0.04862,0.0281 0.09471,-0.06045 0.143492,-0.08827 0.158629,-0.09049 0.131064,-0.05241 0.274533,-0.171923 0.04486,-0.03737 0.08523,-0.07982 0.127852,-0.119724 1.01563,-0.649462 2.063276,-1.254582 3.118367,-1.840604 0.129378,-0.06645 0.511872,-0.276246 0.386329,-0.202812 -0.677115,0.396064 -1.355105,0.79066 -2.035696,1.180721 -0.138516,0.07939 0.270534,-0.169733 0.408677,-0.249765 0.813629,-0.471369 1.627336,-0.9426 2.441005,-1.413901 0,0 -2.069368,1.655299 -2.069368,1.655299 z"
       inkscape:connector-curvature="0"
       transform="translate(0,1002.3622)" />
    <path
       style="fill:#f2f2f2;fill-opacity:1;stroke:none"
       id="path6510"
       d="m 43.276451,21.72884 c -0.294628,0.303089 -0.531392,0.653879 -0.826001,0.956379 -0.199698,0.210916 -0.34939,0.463855 -0.577711,0.645922 -0.817403,0.702469 0.364396,-0.30245 -2.484295,1.466982 -0.705788,0.438392 2.866808,-1.68054 2.160975,-1.242219 -0.779096,0.483818 -1.594502,0.906898 -2.380884,1.378782 -0.707298,0.424428 1.427987,-0.826139 2.143599,-1.236394 0.04129,-0.02367 -0.08034,0.05105 -0.120513,0.07658 -0.922812,0.693676 -1.885401,1.469415 -3.007396,1.761192 -0.820449,0.410324 -1.790953,0.991408 1.917084,-1.11158 0.03804,-0.02157 -0.07414,0.04641 -0.1115,0.06913 -0.151271,0.09202 -0.06423,0.02963 -0.205836,0.143732 -0.0358,0.02671 -0.06858,0.05804 -0.107406,0.08012 -0.798878,0.454545 -1.604215,0.89765 -2.404762,1.349249 -0.459809,0.259383 0.292001,-0.135133 -0.258648,0.11693 -0.04618,0.02114 -0.173819,0.1051 -0.129703,0.07994 0.709371,-0.404583 1.417029,-0.812164 2.125543,-1.218246 -0.0483,0.03072 -0.09528,0.06363 -0.144904,0.09216 -6.850362,3.939392 0.0566,-0.05298 -0.289487,0.161689 -0.784855,0.486826 -1.605667,0.913431 -2.398365,1.387379 -0.707517,0.423019 1.425734,-0.827935 2.142791,-1.234574 0.03767,-0.02136 -0.06915,0.05216 -0.103724,0.07823 -0.178514,0.203858 -0.275116,0.456752 -0.474996,0.643369 -0.03628,0.0222 -0.07255,0.0444 -0.108829,0.06659 0,0 -2.470565,0.966458 -2.470565,0.966458 l 0,0 c 0.03515,-0.02535 0.0703,-0.05069 0.105454,-0.07604 0.275646,-0.09507 0.396135,-0.316569 0.503261,-0.577887 0.628632,-0.908843 -0.292024,0.38502 2.464694,-1.531479 0.673027,-0.467896 -2.841636,1.635588 -2.12787,1.23256 8.057007,-4.54938 -1.508374,0.776326 0.437566,-0.248303 0.801658,-0.466155 1.60025,-0.937624 2.404975,-1.398467 0.08947,-0.05124 0.187032,-0.08682 0.280562,-0.130207 0.04067,-0.01886 0.162679,-0.0747 0.12403,-0.05198 -2.050562,1.205045 -2.92017,1.578253 -2.034907,1.19293 0.447303,-0.311458 -0.250977,0.184921 0.196555,-0.169222 0.816908,-0.64644 1.781887,-1.15151 2.755651,-1.545254 0.863621,-0.433302 0.193493,-0.10036 -2.015606,1.183447 -0.04024,0.02339 0.08203,-0.04453 0.119833,-0.07167 0.242784,-0.174313 -0.02561,-0.02399 0.241859,-0.161449 0.04153,-0.02604 0.07835,-0.05895 0.117523,-0.08842 0.746243,-0.775519 0.04487,-0.06694 2.496616,-1.498404 0.716992,-0.418619 -2.872409,1.666849 -2.154346,1.250069 7.932361,-4.604134 -1.473121,0.854293 0.337899,-0.188586 0.271775,-0.253151 -0.08261,0.06242 0.210129,-0.152947 0.16177,-0.119013 0.255957,-0.325546 0.38678,-0.473369 0.170462,-0.18181 0.07974,-0.09392 0.272917,-0.262867 0.202641,-0.20804 0.320761,-0.487075 0.553888,-0.668624 0,0 2.43807,-1.041636 2.43807,-1.041636 z"
       inkscape:connector-curvature="0"
       transform="translate(0,1002.3622)" />
  </g>
  <g
     inkscape:groupmode="layer"
     id="layer4"
     inkscape:label="Icons"
     style="display:inline">
    <g
       transform="matrix(0.31508102,0,0,0.33604188,58.639746,-20.542234)"
       id="layer1-7"
       inkscape:label="Layer 1">
      <path
         inkscape:connector-curvature="0"
         id="path6747"
         d="m -177.14286,157.8979 c 0,46.07142 20,46.07142 20,46.07142 0,0 20,1e-5 20,-46.07142 z"
         style="fill:url(#linearGradient4211);fill-opacity:1;stroke:#000000;stroke-width:2;stroke-linecap:butt;stroke-linejoin:miter;stroke-miterlimit:4;stroke-opacity:1;stroke-dasharray:none" />
    </g>
    <text
       xml:space="preserve"
       style="font-size:18px;font-style:normal;font-weight:normal;line-height:125%;letter-spacing:0px;word-spacing:0px;fill:#000000;fill-opacity:1;stroke:none;font-family:Sans"
       x="5.1785712"
       y="38.214287"
       id="text6081"
       sodipodi:linespacing="125%"><tspan
         sodipodi:role="line"
         id="tspan6083" /></text>
    <text
       xml:space="preserve"
       style="font-size:13px;font-style:normal;font-weight:normal;line-height:125%;letter-spacing:0px;word-spacing:0px;fill:#000000;fill-opacity:1;stroke:none;font-family:Sans"
       x="5.8928576"
       y="44.464287"
       id="text6085"
       sodipodi:linespacing="125%"><tspan
         sodipodi:role="line"
         x="5.8928576"
         y="44.464287"
         id="tspan6408">8</tspan></text>
  </g>
</svg>
