<?xml version="1.0" encoding="UTF-8" standalone="no"?>
<!-- Created with Inkscape (http://www.inkscape.org/) -->

<svg
   xmlns:dc="http://purl.org/dc/elements/1.1/"
   xmlns:cc="http://creativecommons.org/ns#"
   xmlns:rdf="http://www.w3.org/1999/02/22-rdf-syntax-ns#"
   xmlns:svg="http://www.w3.org/2000/svg"
   xmlns="http://www.w3.org/2000/svg"
   xmlns:xlink="http://www.w3.org/1999/xlink"
   xmlns:sodipodi="http://sodipodi.sourceforge.net/DTD/sodipodi-0.dtd"
   xmlns:inkscape="http://www.inkscape.org/namespaces/inkscape"
   width="50"
   height="50"
   id="svg3067"
   version="1.1"
   inkscape:version="0.48.2 r9819"
   sodipodi:docname="Sheep.svg">
  <defs
     id="defs3069">
    <linearGradient
       id="linearGradient8564">
      <stop
         style="stop-color:#4c3b27;stop-opacity:1;"
         offset="0"
         id="stop8566" />
      <stop
         id="stop8570"
         offset="1"
         style="stop-color:#4c3b27;stop-opacity:1;" />
    </linearGradient>
    <linearGradient
       id="linearGradient6996">
      <stop
         style="stop-color:#e3c390;stop-opacity:0.97647059;"
         offset="0"
         id="stop6998" />
      <stop
         style="stop-color:#633423;stop-opacity:0.97647059;"
         offset="1"
         id="stop7000" />
    </linearGradient>
    <linearGradient
       id="linearGradient6350">
      <stop
         id="stop6352"
         offset="0"
         style="stop-color:#dba079;stop-opacity:1;" />
      <stop
         id="stop6354"
         offset="1"
         style="stop-color:#74473a;stop-opacity:1;" />
    </linearGradient>
    <linearGradient
       id="linearGradient6326">
      <stop
         style="stop-color:#e6bda3;stop-opacity:1;"
         offset="0"
         id="stop6328" />
      <stop
         style="stop-color:#aa6756;stop-opacity:1;"
         offset="1"
         id="stop6330" />
    </linearGradient>
    <linearGradient
       id="linearGradient4069">
      <stop
         id="stop4071"
         offset="0"
         style="stop-color:#eeedd4;stop-opacity:1;" />
      <stop
         style="stop-color:#b59f36;stop-opacity:1;"
         offset="1"
         id="stop4077" />
    </linearGradient>
    <linearGradient
       id="linearGradient6794">
      <stop
         id="stop6796"
         offset="0"
         style="stop-color:#e6d944;stop-opacity:1;" />
      <stop
         id="stop6798"
         offset="1"
         style="stop-color:#ffffff;stop-opacity:1;" />
    </linearGradient>
    <linearGradient
       gradientUnits="userSpaceOnUse"
       y2="166.96429"
       x2="43.035713"
       y1="213.03571"
       x1="43.035713"
       id="linearGradient6800"
       xlink:href="#linearGradient6794"
       inkscape:collect="always" />
    <linearGradient
       inkscape:collect="always"
       xlink:href="#linearGradient6794-6"
       id="linearGradient4211-7"
       gradientUnits="userSpaceOnUse"
       x1="43.035713"
       y1="213.03571"
       x2="43.035713"
       y2="166.96429"
       gradientTransform="translate(-200.17857,-9.0663888)" />
    <linearGradient
       id="linearGradient6794-6">
      <stop
         id="stop6796-7"
         offset="0"
         style="stop-color:#e6d944;stop-opacity:1;" />
      <stop
         id="stop6798-8"
         offset="1"
         style="stop-color:#ffffff;stop-opacity:1;" />
    </linearGradient>
    <linearGradient
       y2="166.96429"
       x2="43.035713"
       y1="213.03571"
       x1="43.035713"
       gradientTransform="translate(-200.17857,-9.0663888)"
       gradientUnits="userSpaceOnUse"
       id="linearGradient6723"
       xlink:href="#linearGradient6794-6"
       inkscape:collect="always" />
    <linearGradient
       gradientTransform="translate(-28.947442,-0.59356385)"
       gradientUnits="userSpaceOnUse"
       y2="176.31338"
       x2="12.73065"
       y1="176.31338"
       x1="-6.2643404"
       id="linearGradient4075"
       xlink:href="#linearGradient4069-5"
       inkscape:collect="always" />
    <linearGradient
       id="linearGradient4069-5">
      <stop
         id="stop4071-8"
         offset="0"
         style="stop-color:#eeedd4;stop-opacity:1;" />
      <stop
         style="stop-color:#b59f36;stop-opacity:1;"
         offset="1"
         id="stop4077-9" />
    </linearGradient>
    <linearGradient
       inkscape:collect="always"
       xlink:href="#linearGradient6350"
       id="linearGradient8460"
       x1="2.8418586"
       y1="24.996986"
       x2="31.449493"
       y2="24.996986"
       gradientUnits="userSpaceOnUse" />
    <linearGradient
       inkscape:collect="always"
       xlink:href="#linearGradient6350-5"
       id="linearGradient8460-3"
       x1="2.8418586"
       y1="24.996986"
       x2="31.449493"
       y2="24.996986"
       gradientUnits="userSpaceOnUse" />
    <linearGradient
       id="linearGradient6350-5">
      <stop
         id="stop6352-5"
         offset="0"
         style="stop-color:#dba079;stop-opacity:1;" />
      <stop
         id="stop6354-1"
         offset="1"
         style="stop-color:#74473a;stop-opacity:1;" />
    </linearGradient>
    <linearGradient
       gradientTransform="translate(-0.35996185,1002.1866)"
       y2="24.996986"
       x2="31.449493"
       y1="24.996986"
       x1="2.8418586"
       gradientUnits="userSpaceOnUse"
       id="linearGradient8493"
       xlink:href="#linearGradient6350-5"
       inkscape:collect="always" />
    <linearGradient
       gradientTransform="translate(-0.35996185,1002.1866)"
       y2="24.996986"
       x2="31.449493"
       y1="24.996986"
       x1="2.8418586"
       gradientUnits="userSpaceOnUse"
       id="linearGradient8493-5"
       xlink:href="#linearGradient6350-5-5"
       inkscape:collect="always" />
    <linearGradient
       id="linearGradient6350-5-5">
      <stop
         id="stop6352-5-8"
         offset="0"
         style="stop-color:#dba079;stop-opacity:1;" />
      <stop
         id="stop6354-1-4"
         offset="1"
         style="stop-color:#74473a;stop-opacity:1;" />
    </linearGradient>
    <linearGradient
       y2="24.996986"
       x2="31.449493"
       y1="24.996986"
       x1="2.8418586"
       gradientTransform="matrix(0.99786412,0.29144495,-0.28454584,1.086396,14.928848,995.00561)"
       gradientUnits="userSpaceOnUse"
       id="linearGradient8527"
       xlink:href="#linearGradient6350-5-5"
       inkscape:collect="always" />
    <radialGradient
       inkscape:collect="always"
       xlink:href="#linearGradient8564"
       id="radialGradient8556"
       cx="22.142857"
       cy="23.928572"
       fx="22.142857"
       fy="23.928572"
       r="7.5"
       gradientTransform="matrix(1,0,0,0.85714283,0,3.418368)"
       gradientUnits="userSpaceOnUse" />
    <linearGradient
       id="linearGradient4069-5-0">
      <stop
         id="stop4071-8-4"
         offset="0"
         style="stop-color:#eeedd4;stop-opacity:1;" />
      <stop
         style="stop-color:#b59f36;stop-opacity:1;"
         offset="1"
         id="stop4077-9-9" />
    </linearGradient>
    <linearGradient
       gradientTransform="translate(-28.947442,-0.59356385)"
       gradientUnits="userSpaceOnUse"
       y2="176.31339"
       x2="12.73065"
       y1="176.31339"
       x1="-6.2643404"
       id="linearGradient4075-9-3"
       xlink:href="#linearGradient4069-5-0-1"
       inkscape:collect="always" />
    <linearGradient
       id="linearGradient4069-5-0-1">
      <stop
         id="stop4071-8-4-1"
         offset="0"
         style="stop-color:#eeedd4;stop-opacity:1;" />
      <stop
         style="stop-color:#b59f36;stop-opacity:1;"
         offset="1"
         id="stop4077-9-9-9" />
    </linearGradient>
    <filter
       inkscape:collect="always"
       id="filter10948"
       x="-0.11409996"
       width="1.2281999"
       y="-0.53081283"
       height="2.0616257">
      <feGaussianBlur
         inkscape:collect="always"
         stdDeviation="1.2846505"
         id="feGaussianBlur10950" />
    </filter>
    <filter
       inkscape:collect="always"
       id="filter10962"
       x="-0.1392062"
       width="1.2784124"
       y="-0.10545098"
       height="1.210902">
      <feGaussianBlur
         inkscape:collect="always"
         stdDeviation="0.18863195"
         id="feGaussianBlur10964" />
    </filter>
  </defs>
  <sodipodi:namedview
     id="base"
     pagecolor="#ffffff"
     bordercolor="#666666"
     borderopacity="1.0"
     inkscape:pageopacity="0.0"
     inkscape:pageshadow="2"
     inkscape:zoom="3.959798"
     inkscape:cx="-65.501445"
     inkscape:cy="26.014731"
     inkscape:document-units="px"
     inkscape:current-layer="layer11"
     showgrid="false"
     inkscape:window-width="1680"
     inkscape:window-height="988"
     inkscape:window-x="2552"
     inkscape:window-y="1016"
     inkscape:window-maximized="1" />
  <metadata
     id="metadata3072">
    <rdf:RDF>
      <cc:Work
         rdf:about="">
        <dc:format>image/svg+xml</dc:format>
        <dc:type
           rdf:resource="http://purl.org/dc/dcmitype/StillImage" />
        <dc:title />
      </cc:Work>
    </rdf:RDF>
  </metadata>
  <g
     inkscape:groupmode="layer"
     id="layer5"
     inkscape:label="Background"
     style="display:inline">
    <rect
       style="fill:#5d9356;fill-opacity:1;stroke:none;opacity:1"
       id="rect5277"
       width="50"
       height="50"
       x="0"
       y="0" />
  </g>
  <g
     inkscape:label="Drawing"
     inkscape:groupmode="layer"
     id="layer1"
     transform="translate(0,-1002.3622)"
     style="display:inline;opacity:1">
    <path
       sodipodi:type="arc"
       style="fill:#000000;fill-opacity:1;stroke:none;stroke-width:0.60000001999999997;stroke-linecap:round;stroke-linejoin:round;stroke-miterlimit:4;stroke-opacity:1;stroke-dasharray:none;filter:url(#filter10948);opacity:0.70353982"
       id="path10942"
       sodipodi:cx="18.056477"
       sodipodi:cy="38.00444"
       sodipodi:rx="13.51079"
       sodipodi:ry="2.9041886"
       d="m 31.567266,38.00444 c 0,1.603939 -6.048986,2.904189 -13.510789,2.904189 -7.461804,0 -13.5107903,-1.30025 -13.5107903,-2.904189 0,-1.603939 6.0489863,-2.904188 13.5107903,-2.904188 7.461803,0 13.510789,1.300249 13.510789,2.904188 z"
       transform="translate(0,1002.3622)" />
    <path
       style="opacity:1;fill:#a05a2c;fill-opacity:0.77659577000000002;stroke:#000000;stroke-width:0.60000001999999997;stroke-linecap:butt;stroke-linejoin:miter;stroke-miterlimit:4;stroke-opacity:1;stroke-dasharray:none;display:inline"
       d="m 28.163476,1033.5821 c 0.03517,-0.053 0.789057,-0.6785 -0.126269,3.6618 -0.384708,1.8242 1.136422,3.1567 1.136422,3.1567 0,0 -1.810605,1.9954 -1.767767,1.0102 0.126269,-2.9042 -1.010152,-3.6619 -0.883883,-5.1771 0.126269,-1.5152 0.883883,-4.5457 0.883883,-4.5457"
       id="path10970-6"
       inkscape:connector-curvature="0"
       sodipodi:nodetypes="cscssc" />
    <path
       style="fill:#a05a2c;stroke:#000000;stroke-width:0.59999999999999998;stroke-linecap:butt;stroke-linejoin:miter;stroke-opacity:1;fill-opacity:0.77659577000000002;stroke-miterlimit:4;stroke-dasharray:none;opacity:1"
       d="m 10.480333,31.05964 c 0,0 -0.126269,3.535534 0.252538,5.177032 0.378807,1.641497 1.515229,1.388959 1.515229,1.388959 l 1.010152,-0.378807 c 0,0 -1.262691,-3.409265 -0.757614,-5.303301"
       id="path10968"
       inkscape:connector-curvature="0"
       transform="translate(0,1002.3622)" />
    <path
       style="fill:#a05a2c;stroke:#000000;stroke-width:0.59999999999999998;stroke-linecap:butt;stroke-linejoin:miter;stroke-opacity:1;fill-opacity:0.77659577000000002;stroke-miterlimit:4;stroke-dasharray:none;opacity:1"
       d="m 8.7125657,30.175756 c 0,0 -1.6414979,2.651651 -1.3889597,4.04061 0.2525381,1.38896 0.5050762,3.661803 0.5050762,3.661803 L 6.1871843,37.499362 c 0,0 -0.8838834,-6.060915 -0.126269,-7.197337 0.7576144,-1.136421 0.8838834,-0.378807 0.8838834,-0.378807"
       id="path10966"
       inkscape:connector-curvature="0"
       transform="translate(0,1002.3622)" />
    <path
       style="fill:#dbbeb1;stroke:#000000;stroke-width:0.59999999999999998;stroke-linecap:butt;stroke-linejoin:miter;stroke-opacity:1;stroke-miterlimit:4;stroke-dasharray:none;fill-opacity:1;opacity:1"
       d="m 6.5659915,18.306464 c -0.6313453,-2.651651 -1.2626906,-4.671956 0.6313454,-5.808377 1.894036,-1.136422 4.1668791,-2.6516507 6.8185301,-2.399113 2.65165,0.252539 7.449875,1.767767 10.227794,1.515229 2.77792,-0.252538 6.565992,-0.126269 7.197337,-0.631345 0.631345,-0.505076 0.883883,-3.2829958 3.535534,-3.4092649 2.65165,-0.1262691 3.661803,-1.1364216 5.177032,-0.5050763 1.515228,0.6313454 3.535534,1.1364216 3.788072,3.5355342 0.252538,2.399112 0.883883,3.788072 0.883883,4.671955 0,0.883884 -1.641498,2.525382 -3.535534,1.641498 -1.894036,-0.883883 -1.136421,1.641498 -1.641498,2.651651 -0.505076,1.010152 -4.04061,7.954951 -5.555839,8.333758 -1.515228,0.378807 -3.535534,1.767767 -3.409264,2.525381 0.126269,0.757615 -2.77792,0.505077 -2.77792,0.505077 0,0 -1.38896,-4.16688 -0.883883,-4.545687 0.505076,-0.378807 -11.995562,1.010153 -12.374369,-0.252538 -0.378807,-1.262691 -1.767767,6.313454 -2.904189,6.187184 -1.136421,-0.126269 -2.399112,-2.020305 -1.26269,-3.282995 1.136421,-1.262691 -1.8940364,1.641498 -3.2829961,1.010152 -1.3889598,-0.631345 -1.0101526,-5.050762 -0.7576144,-6.818529 0.2525381,-1.767767 0.126269,-4.924494 0.126269,-4.924494 z"
       id="path10952"
       inkscape:connector-curvature="0"
       transform="translate(0,1002.3622)" />
    <path
       style="fill:#000000;fill-opacity:0.57446810000000004;stroke:#000000;opacity:1;stroke-opacity:1;stroke-width:0.3;stroke-miterlimit:4;stroke-dasharray:none"
       d="m 36.112953,11.361665 c 0,0 2.864448,4.636173 4.419418,5.177032 2.904189,1.010152 3.661803,0.126269 4.419417,-1.136422 0.194895,-0.324824 -1.26269,-3.409265 -1.26269,-4.293148 0,-0.883883 -0.126269,-0.126269 -0.126269,-0.126269 0,0 -4.545687,0.883883 -6.439723,-0.126269 -1.894036,-1.0101527 -1.010153,0.505076 -1.010153,0.505076 z"
       id="path10954"
       inkscape:connector-curvature="0"
       transform="translate(0,1002.3622)"
       sodipodi:nodetypes="cssscsc" />
    <path
       style="fill:#ededed;stroke:none;stroke-width:1px;stroke-linecap:butt;stroke-linejoin:miter;stroke-opacity:1;fill-opacity:0.77659577000000002;opacity:1"
       d="m 14.142136,21.715729 c 0.378807,2.399112 -3.661803,6.565991 -5.5558394,7.449875 -1.894036,0.883883 -1.3889597,-0.757615 -1.3889597,-0.757615 0,0 4.0406101,-2.525381 4.7982241,-4.166879 0.757615,-1.641498 1.010153,-4.671955 1.641498,-3.661803 0.631346,1.010153 0.505077,1.136422 0.505077,1.136422 z"
       id="path10956"
       inkscape:connector-curvature="0"
       transform="translate(0,1002.3622)" />
    <path
       style="fill:#ededed;stroke:none;stroke-width:1px;stroke-linecap:butt;stroke-linejoin:miter;stroke-opacity:1;fill-opacity:0.77659577000000002;opacity:1"
       d="m 30.557114,21.463191 c 1.136422,1.894036 2.904189,3.282995 1.641498,5.177031 -1.26269,1.894036 -2.146574,3.661803 -2.146574,3.661803 0,0 -0.757614,-0.883883 -0.378807,-2.399112 0.378807,-1.515229 1.515229,-1.767767 1.262691,-2.777919 -0.252538,-1.010153 -0.378808,-3.661803 -0.378808,-3.661803 z"
       id="path10958"
       inkscape:connector-curvature="0"
       transform="translate(0,1002.3622)" />
    <path
       style="fill:#383838;stroke:none;stroke-width:1px;stroke-linecap:butt;stroke-linejoin:miter;stroke-opacity:1;fill-opacity:0.77659577000000002;filter:url(#filter10962);opacity:1"
       d="m 13.51079,24.367379 c 0,0 -1.388959,2.904189 -2.399112,3.535534 -1.010153,0.631345 0.378807,0.757614 0.378807,0.757614 0,0 2.020305,-2.146574 2.399112,-3.156726 0.378808,-1.010153 -0.378807,-1.136422 -0.378807,-1.136422 z"
       id="path10960"
       inkscape:connector-curvature="0"
       transform="translate(0,1002.3622)" />
    <path
       style="fill:#a05a2c;fill-opacity:0.77659577000000002;stroke:#000000;stroke-width:0.59999999999999998;stroke-linecap:butt;stroke-linejoin:miter;stroke-miterlimit:4;stroke-opacity:1;stroke-dasharray:none;opacity:1"
       d="m 29.925769,30.807102 c 0,0 -1.136421,2.525381 -0.252538,4.166879 0.883883,1.641498 1.010153,4.166879 1.010153,4.166879 0,0 -2.063144,0.606455 -2.020306,-0.378807 0.126269,-2.904188 -0.883883,-1.894036 -0.757614,-3.409265 0.126269,-1.515228 0.505076,-4.293148 0.505076,-4.293148"
       id="path10970"
       inkscape:connector-curvature="0"
       transform="translate(0,1002.3622)"
       sodipodi:nodetypes="cscssc" />
  </g>
  <g
     inkscape:groupmode="layer"
     id="layer4"
     inkscape:label="Food"
     style="display:inline">
    <g
       style="display:inline;opacity:1"
       id="g6807"
       transform="translate(27.860355,26.966329)">
      <g
         style="display:inline"
         inkscape:label="dimple"
         id="layer2">
        <path
           transform="matrix(0.273449,0,0,0.24188646,6.312303,3.274902)"
           d="m 22.857142,-0.95535719 c 0,3.52574649 -2.558372,6.38392879 -5.714285,6.38392879 -3.155913,0 -5.714286,-2.8581823 -5.714286,-6.38392879 0,-3.52574651 2.558373,-6.38392881 5.714286,-6.38392881 3.155913,0 5.714285,2.8581823 5.714285,6.38392881 z"
           sodipodi:ry="6.3839288"
           sodipodi:rx="5.7142859"
           sodipodi:cy="-0.95535719"
           sodipodi:cx="17.142857"
           id="path4088"
           style="fill:#d1c583;fill-opacity:1;stroke:#000000;stroke-width:1.55530667000000000;stroke-miterlimit:4;stroke-opacity:1;stroke-dasharray:none"
           sodipodi:type="arc" />
      </g>
      <g
         style="display:inline"
         transform="translate(36.714287,-165.71933)"
         id="layer1-0"
         inkscape:label="pot">
        <path
           sodipodi:nodetypes="sssczcssscs"
           inkscape:connector-curvature="0"
           d="m -32.360131,182.99169 c -0.889916,-0.0352 -1.262691,-0.37881 -1.262691,-1.26269 0,-0.88389 5.02e-4,-4.66745 0,-6.43973 -3.21e-4,-1.13192 -1.38896,-2.27284 -1.38896,-2.27284 0,0 2.180186,-4.57695 9.364459,-4.57815 7.184274,-0.001 9.230531,4.5758 9.230531,4.5758 0,0 -1.388639,1.14092 -1.38896,2.27285 -5.02e-4,1.77227 0,5.55583 0,6.43972 0,0.88388 -0.372775,1.22747 -1.262691,1.26269 -0.892159,0.0353 -6.645844,-0.0358 -6.645844,-0.0358 0,0 -5.753685,0.0735 -6.645844,0.0382 z"
           style="fill:url(#linearGradient4075-9-3);fill-opacity:1;stroke:#000000;stroke-width:0.40000001000000002;stroke-linecap:butt;stroke-linejoin:round;stroke-miterlimit:4;stroke-opacity:1;stroke-dasharray:none"
           id="path4052" />
        <path
           transform="translate(-36.714287,165.71933)"
           inkscape:connector-curvature="0"
           id="path4079"
           d="M 30.848214,7.8392857 z"
           style="fill:none;stroke:#000000;stroke-width:1px;stroke-linecap:butt;stroke-linejoin:miter;stroke-opacity:1" />
        <path
           sodipodi:nodetypes="cc"
           inkscape:connector-curvature="0"
           id="path4081"
           d="m -16.678572,173.00533 -18.169643,-0.0271"
           style="fill:none;stroke:#000000;stroke-width:0.40000001000000002;stroke-linecap:butt;stroke-linejoin:miter;stroke-miterlimit:4;stroke-opacity:1;stroke-dasharray:none" />
      </g>
    </g>
    <text
       xml:space="preserve"
       style="font-size:13px;font-style:normal;font-weight:normal;line-height:125%;letter-spacing:0px;word-spacing:0px;fill:#000000;fill-opacity:1;stroke:none;display:inline;font-family:Sans"
       x="35.442028"
       y="43.300011"
       id="text6815"
       sodipodi:linespacing="125%"><tspan
         sodipodi:role="line"
         id="tspan6817"
         x="35.442028"
         y="43.300011"
         style="font-size:12px">2</tspan></text>
  </g>
  <g
     inkscape:groupmode="layer"
     id="layer11"
     inkscape:label="Coins"
     style="display:none">
    <path
       sodipodi:type="arc"
       style="fill:#d3cdb0;fill-opacity:0.97647059;stroke:#000000;stroke-width:0.5;stroke-miterlimit:4;stroke-opacity:1;stroke-dasharray:none"
       id="path6822"
       sodipodi:cx="40.532372"
       sodipodi:cy="8.4574766"
       sodipodi:rx="6.9447989"
       sodipodi:ry="7.1973367"
       d="m 47.47717,8.4574766 a 6.9447989,7.1973367 0 1 1 -13.889597,0 6.9447989,7.1973367 0 1 1 13.889597,0 z"
       transform="matrix(1.0357598,0,0,0.99941739,-0.67134623,0.51002708)" />
    <text
       xml:space="preserve"
       style="font-size:13px;font-style:normal;font-weight:normal;line-height:125%;letter-spacing:0px;word-spacing:0px;fill:#000000;fill-opacity:1;stroke:none;font-family:Sans"
       x="37.880722"
       y="13.38197"
       id="text6824"
       sodipodi:linespacing="125%"><tspan
         sodipodi:role="line"
         id="tspan6826"
         x="37.880722"
         y="13.38197">5</tspan></text>
  </g>
</svg>
